<?xml version="1.0" standalone="no"?>
<!DOCTYPE svg PUBLIC "-//W3C//DTD SVG 20010904//EN"
 "http://www.w3.org/TR/2001/REC-SVG-20010904/DTD/svg10.dtd">
<svg version="1.0" xmlns="http://www.w3.org/2000/svg"
 width="300.000000pt" height="300.000000pt" viewBox="0 0 300.000000 300.000000"
 preserveAspectRatio="xMidYMid meet">
<metadata>
Created by potrace 1.10, written by Peter Selinger 2001-2011
</metadata>
<g transform="translate(0.000000,300.000000) scale(0.100000,-0.100000)"
fill="#000000" stroke="none">
<path d="M244 2848 c4 -84 10 -156 12 -159 5 -8 96 -16 339 -29 338 -19 370
-21 443 -26 74 -6 89 -17 57 -44 -8 -7 -15 -20 -15 -29 -1 -12 -5 -11 -20 8
-11 13 -20 20 -20 15 0 -4 7 -15 16 -25 22 -24 11 -71 -14 -63 -11 4 -9 0 7
-14 16 -13 20 -21 12 -26 -6 -4 -11 -12 -11 -17 0 -6 5 -7 11 -4 6 4 9 -2 7
-17 -2 -12 1 -24 6 -25 17 -3 25 -27 21 -63 -8 -86 -9 -106 -1 -118 12 -20 -2
-28 -25 -14 -32 20 -35 -2 -16 -116 3 -13 10 -29 16 -35 10 -9 11 -5 5 18 -4
17 -3 27 1 22 5 -4 9 -55 10 -115 1 -131 19 -177 105 -264 55 -56 57 -59 36
-70 -11 -6 -22 -11 -23 -10 -11 7 -73 0 -73 -8 0 -5 14 -10 31 -10 20 0 39 -8
50 -22 22 -24 23 -29 8 -26 -6 2 -19 -17 -29 -42 -12 -32 -26 -48 -48 -57 -30
-12 -74 -73 -53 -73 5 0 13 9 16 20 4 13 15 20 33 20 35 0 48 9 57 40 4 14 17
44 27 68 16 34 18 45 8 57 -12 15 -11 16 10 19 6 0 10 5 9 10 0 5 5 13 13 18
10 7 9 11 -5 22 -14 11 -15 15 -5 19 9 4 9 6 1 6 -18 1 -63 49 -63 67 0 8 -3
13 -7 11 -5 -2 -16 4 -25 15 -10 10 -15 18 -11 18 4 0 -2 6 -13 14 -15 11 -19
26 -18 70 0 34 -3 51 -9 43 -10 -14 0 277 13 370 5 37 17 75 30 93 17 24 20
36 13 57 -11 33 21 98 79 158 33 34 36 41 24 51 -12 8 -13 13 -4 22 9 9 8 12
-4 12 -12 0 -15 -7 -12 -23 3 -17 -5 -31 -25 -50 -16 -14 -32 -23 -35 -20 -3
4 -6 -1 -6 -11 0 -25 -38 -96 -55 -103 -8 -3 -13 -9 -10 -14 3 -4 13 -5 22 -2
9 4 14 2 11 -3 -2 -5 -12 -26 -22 -46 -21 -48 -30 -48 -23 -2 4 26 2 41 -9 52
-14 14 -13 16 14 28 16 6 33 18 37 25 5 7 -2 5 -16 -4 -29 -21 -35 -21 -43 -1
-3 8 -2 12 4 9 5 -3 22 1 37 10 16 9 19 13 8 10 -34 -11 -39 -10 -40 5 0 9 14
19 35 25 41 13 51 51 12 49 -16 0 -21 4 -17 16 6 20 17 18 -160 29 -77 6 -174
12 -215 15 -41 3 -166 11 -276 17 l-202 13 0 45 c0 212 -2 241 -18 241 -15 0
-16 -15 -10 -152z m906 -248 c0 -5 -4 -10 -9 -10 -6 0 -13 5 -16 10 -3 6 1 10
9 10 9 0 16 -4 16 -10z m-60 -462 c0 -34 -15 -30 -22 5 -3 15 0 24 9 24 8 0
13 -12 13 -29z"/>
<path d="M286 2975 c-4 -14 -4 -31 0 -37 4 -6 6 -39 5 -73 -2 -72 5 -111 22
-114 42 -6 210 -20 307 -26 63 -3 138 -8 165 -10 102 -9 272 -19 323 -19 43 0
52 -3 52 -18 0 -10 -4 -18 -10 -18 -5 0 -10 -4 -10 -9 0 -5 16 -8 35 -6 19 2
35 -1 35 -6 0 -5 5 -9 11 -9 8 0 8 4 0 14 -9 11 -9 15 1 19 9 4 7 6 -4 6 -9 1
-19 -5 -21 -11 -3 -8 -6 -5 -6 5 -1 10 4 28 10 39 8 15 8 19 0 14 -16 -10 -13
-2 7 22 14 16 22 18 37 9 18 -10 19 -9 5 7 -13 16 -12 20 7 36 37 30 175 38
157 9 -3 -5 6 -5 19 0 14 6 42 8 63 6 35 -4 36 -3 14 6 -14 6 -40 8 -58 5 -19
-3 -30 -1 -27 5 4 5 -16 9 -47 9 -57 1 -51 12 12 24 24 5 31 4 21 -3 -11 -7
-5 -11 25 -15 21 -4 61 -11 87 -16 27 -6 54 -7 59 -3 6 3 8 2 5 -3 -3 -6 4
-16 16 -24 20 -12 21 -12 8 3 -8 10 -9 17 -3 17 6 0 17 -8 24 -17 17 -23 58
-46 58 -33 0 16 -37 49 -74 64 -35 15 -139 32 -166 28 -13 -3 -13 -2 0 7 8 6
22 8 32 5 9 -2 19 0 23 5 3 7 0 8 -10 5 -14 -6 -14 -3 -4 20 13 27 27 35 26
14 -1 -33 4 -49 13 -43 6 4 17 2 24 -4 10 -9 15 -8 20 4 4 11 -1 15 -19 15
-24 0 -25 3 -25 60 0 33 -4 60 -10 60 -10 0 -13 -16 -11 -55 1 -20 1 -20 -8 0
-5 11 -7 28 -5 38 2 10 -3 17 -12 17 -11 0 -14 -14 -14 -59 0 -67 -4 -71 -79
-71 -47 0 -123 -29 -138 -53 -4 -6 -25 -25 -46 -40 -20 -16 -35 -32 -33 -36
18 -28 -18 -29 -379 -6 -204 14 -394 27 -422 30 l-53 6 0 115 c0 91 -3 114
-14 114 -8 0 -17 -11 -20 -25z"/>
<path d="M380 2983 c0 -27 14 -43 28 -34 7 4 41 5 75 2 34 -3 92 -6 129 -6 37
1 62 -3 55 -7 -7 -4 7 -8 31 -8 41 0 42 0 42 35 0 19 -4 35 -10 35 -5 0 -10
-9 -10 -20 0 -15 -5 -19 -22 -16 -13 3 -45 5 -72 5 -42 1 -47 3 -33 14 15 10
10 12 -33 12 -27 0 -50 -3 -50 -7 0 -5 5 -8 12 -8 6 0 9 -3 5 -6 -3 -3 -14 -1
-23 4 -11 6 -25 7 -35 2 -10 -6 -26 -4 -43 6 -37 18 -46 18 -46 -3z"/>
<path d="M678 2993 c6 -2 18 -2 25 0 6 3 1 5 -13 5 -14 0 -19 -2 -12 -5z"/>
<path d="M767 2970 c-15 -82 -14 -100 4 -100 17 0 29 27 29 68 0 13 -4 21 -9
17 -5 -3 -11 7 -13 22 -4 27 -4 26 -11 -7z"/>
<path d="M803 2986 c-4 -5 -1 -6 5 -2 12 7 17 -42 12 -103 -1 -13 4 -28 12
-32 10 -7 10 -9 1 -9 -7 0 -13 -7 -13 -16 0 -16 -11 -16 -98 1 -9 2 -38 4 -64
4 -36 1 -48 5 -48 16 0 8 -5 15 -11 15 -5 0 -7 -4 -4 -10 4 -6 -6 -10 -22 -10
-26 1 -27 2 -9 15 19 15 14 35 -9 35 -8 0 -18 -8 -24 -17 -5 -10 -13 -14 -18
-10 -4 5 3 17 16 28 14 12 18 19 9 19 -8 0 -19 -5 -24 -10 -7 -7 -28 -4 -65 8
l-56 18 -2 -48 -2 -48 40 0 c22 0 46 -3 55 -6 9 -3 16 -1 16 5 0 6 -13 11 -30
11 -20 0 -30 5 -30 15 0 18 4 18 47 3 18 -7 33 -18 33 -25 0 -7 10 -13 23 -13
12 0 105 -7 207 -15 331 -26 400 -27 394 -10 -5 11 -10 13 -19 5 -9 -7 -15 -3
-24 16 -12 28 -38 28 -33 0 3 -14 -4 -16 -45 -11 -26 3 -56 6 -65 7 -11 2 -14
6 -8 14 6 6 7 14 3 17 -3 4 1 7 10 7 20 0 23 30 5 49 -10 11 -10 13 0 7 8 -5
12 2 12 24 0 18 -4 29 -10 25 -6 -4 -10 5 -10 19 0 21 -5 26 -25 26 -25 0 -26
-2 -18 -37 4 -21 7 -55 6 -75 0 -21 3 -35 8 -32 5 3 9 -2 9 -10 0 -9 -5 -16
-11 -16 -5 0 -7 -4 -4 -10 7 -12 -55 -14 -70 -2 -12 9 -18 52 -7 52 5 0 8 29
8 65 -1 61 -2 64 -24 62 -13 -1 -26 -6 -29 -11z m-370 -111 c-3 -9 -8 -14 -10
-11 -3 3 -2 9 2 15 9 16 15 13 8 -4z"/>
<path d="M997 2980 c3 -11 7 -20 9 -20 2 0 4 9 4 20 0 11 -4 20 -9 20 -5 0 -7
-9 -4 -20z"/>
<path d="M1074 2983 c-10 -31 -22 -48 -33 -45 -6 1 -11 -3 -11 -9 0 -6 7 -8
16 -5 10 4 25 -1 35 -10 18 -16 19 -16 19 4 0 12 -4 22 -10 22 -5 0 -10 5 -10
11 0 5 5 7 10 4 6 -4 10 5 10 19 0 29 -18 35 -26 9z"/>
<path d="M1114 2978 c3 -13 6 -38 6 -56 0 -20 4 -31 10 -27 6 3 10 28 10 56 0
38 -3 49 -16 49 -12 0 -15 -6 -10 -22z"/>
<path d="M1160 2988 c1 -47 14 -87 29 -85 9 1 45 -2 79 -7 43 -5 67 -5 75 3 7
7 6 12 -5 16 -15 6 -15 9 0 36 10 16 20 29 23 29 11 0 18 -54 9 -65 -6 -7 -1
-16 11 -23 18 -12 19 -9 19 48 0 58 -1 60 -25 60 -18 0 -31 -9 -43 -30 -23
-41 -56 -49 -87 -20 -20 19 -22 26 -13 38 10 12 9 14 -7 11 -24 -5 -27 -28 -7
-52 17 -19 10 -32 -11 -24 -8 3 -17 22 -21 41 -6 34 -26 51 -26 24z"/>
<path d="M1841 2978 c1 -16 3 -18 6 -6 2 9 12 19 21 21 12 3 10 5 -5 6 -18 1
-23 -4 -22 -21z"/>
<path d="M2063 2993 c9 -2 23 -2 30 0 6 3 -1 5 -18 5 -16 0 -22 -2 -12 -5z"/>
<path d="M2268 2993 c12 -2 32 -2 45 0 12 2 2 4 -23 4 -25 0 -35 -2 -22 -4z"/>
<path d="M2358 2993 c12 -2 32 -2 45 0 12 2 2 4 -23 4 -25 0 -35 -2 -22 -4z"/>
<path d="M2718 2993 c7 -3 16 -2 19 1 4 3 -2 6 -13 5 -11 0 -14 -3 -6 -6z"/>
<path d="M1020 2970 c0 -5 7 -10 15 -10 8 0 15 5 15 10 0 6 -7 10 -15 10 -8 0
-15 -4 -15 -10z"/>
<path d="M1841 2934 c0 -11 3 -14 6 -6 3 7 2 16 -1 19 -3 4 -6 -2 -5 -13z"/>
<path d="M628 2907 c-8 -19 9 -64 19 -53 4 3 12 1 20 -6 7 -6 16 -8 20 -5 3 4
-6 12 -20 18 -17 7 -27 21 -29 38 -3 22 -4 23 -10 8z"/>
<path d="M678 2883 c7 -3 16 -2 19 1 4 3 -2 6 -13 5 -11 0 -14 -3 -6 -6z"/>
<path d="M720 2879 c0 -5 5 -7 10 -4 6 3 10 8 10 11 0 2 -4 4 -10 4 -5 0 -10
-5 -10 -11z"/>
<path d="M1592 2870 c-10 -16 -10 -20 0 -20 14 0 48 -16 93 -45 26 -17 28 -17
16 -2 -12 16 -11 16 25 3 22 -8 38 -19 37 -25 -2 -5 4 -8 11 -5 8 3 27 -8 44
-25 16 -17 33 -31 38 -31 4 0 21 -12 37 -27 22 -21 27 -23 19 -8 -15 30 -49
58 -61 50 -7 -3 -8 0 -5 9 4 11 0 16 -10 16 -9 0 -16 4 -16 9 0 5 -14 14 -30
21 -25 10 -28 15 -18 27 9 11 8 13 -2 11 -8 -2 -16 6 -18 16 -4 18 -2 17 26
-3 17 -11 37 -21 46 -21 21 0 91 -67 76 -72 -6 -2 5 -11 24 -21 53 -25 47 0
-13 54 -73 65 -80 71 -91 64 -5 -3 -20 0 -32 7 -33 18 -58 18 -50 0 4 -11 1
-14 -11 -9 -9 3 -17 4 -17 1 0 -2 12 -9 26 -15 15 -5 24 -12 21 -15 -2 -3 -21
3 -41 14 -35 19 -35 19 -13 31 20 10 18 11 -13 6 -22 -3 -42 1 -54 10 -26 19
-29 19 -44 -5z m73 -28 c-3 -3 -11 0 -18 7 -9 10 -8 11 6 5 10 -3 15 -9 12
-12z"/>
<path d="M1080 2870 c0 -5 5 -10 11 -10 5 0 7 5 4 10 -3 6 -8 10 -11 10 -2 0
-4 -4 -4 -10z"/>
<path d="M1120 2870 c0 -5 5 -10 10 -10 6 0 10 5 10 10 0 6 -4 10 -10 10 -5 0
-10 -4 -10 -10z"/>
<path d="M1170 2834 c0 -21 3 -34 6 -31 11 11 13 57 3 63 -5 3 -9 -12 -9 -32z"/>
<path d="M1216 2848 c3 -5 10 -6 15 -3 13 9 11 12 -6 12 -8 0 -12 -4 -9 -9z"/>
<path d="M2320 2845 c0 -8 4 -15 10 -15 5 0 7 7 4 15 -4 8 -8 15 -10 15 -2 0
-4 -7 -4 -15z"/>
<path d="M1120 2836 c0 -9 5 -16 10 -16 6 0 10 4 10 9 0 6 -4 13 -10 16 -5 3
-10 -1 -10 -9z"/>
<path d="M1030 2829 c0 -5 5 -7 10 -4 6 3 10 8 10 11 0 2 -4 4 -10 4 -5 0 -10
-5 -10 -11z"/>
<path d="M788 2823 c7 -3 16 -2 19 1 4 3 -2 6 -13 5 -11 0 -14 -3 -6 -6z"/>
<path d="M1280 2780 c-8 -5 -12 -11 -9 -14 2 -3 11 -1 19 4 8 5 12 11 9 14 -2
3 -11 1 -19 -4z"/>
<path d="M1323 2759 c-24 -17 -43 -35 -43 -41 0 -7 -5 -7 -14 1 -11 9 -18 8
-30 -4 -20 -20 -21 -32 -1 -15 8 6 20 10 27 7 7 -2 25 7 40 20 15 14 41 26 60
28 43 4 42 3 24 20 -18 19 -13 20 -63 -16z"/>
<path d="M1452 2776 c-18 -7 -30 -15 -26 -18 3 -3 -4 -9 -15 -13 -26 -8 -28
-22 -3 -22 9 0 32 13 51 28 35 28 51 30 51 3 0 -8 4 -14 10 -14 5 0 7 7 4 15
-8 19 3 19 38 1 23 -12 26 -12 21 0 -3 8 -9 15 -14 15 -5 1 -13 2 -18 3 -5 0
-13 4 -17 9 -10 10 -42 7 -82 -7z"/>
<path d="M1590 2766 c0 -2 8 -10 18 -17 15 -13 16 -12 3 4 -13 16 -21 21 -21
13z"/>
<path d="M1725 2761 c-3 -5 -1 -12 5 -16 5 -3 10 1 10 9 0 18 -6 21 -15 7z"/>
<path d="M1701 2744 c0 -11 3 -14 6 -6 3 7 2 16 -1 19 -3 4 -6 -2 -5 -13z"/>
<path d="M1777 2729 c4 -13 8 -18 11 -10 2 7 -1 18 -6 23 -8 8 -9 4 -5 -13z"/>
<path d="M1346 2666 c-18 -28 -41 -58 -51 -66 -15 -12 -14 -8 4 20 l24 35 -34
-33 -34 -33 44 -41 c43 -41 43 -41 105 -35 64 6 116 23 116 39 0 5 -10 2 -22
-6 -40 -24 -175 -14 -193 14 -4 6 10 33 30 60 l37 50 91 0 c51 0 130 1 176 2
61 2 85 -1 88 -9 3 -7 13 -13 22 -13 10 0 30 -11 44 -25 16 -16 28 -22 32 -15
3 6 11 8 16 4 6 -4 6 -11 -1 -19 -8 -10 -8 -20 1 -37 7 -13 11 -25 10 -28 -1
-2 3 -6 10 -9 8 -2 10 2 6 13 -4 9 -2 16 2 16 5 0 12 -6 14 -12 4 -10 6 -10 6
0 1 8 -8 16 -20 19 -15 4 -19 12 -17 32 2 14 7 29 12 32 4 4 -4 7 -18 7 -15 0
-35 10 -47 23 -12 13 -31 24 -42 24 -12 0 -22 5 -22 12 0 18 -12 26 -21 12 -5
-8 -3 -10 6 -4 9 6 11 4 5 -5 -7 -11 -10 -10 -19 1 -9 11 -42 14 -153 12 -79
-1 -143 2 -143 6 0 4 -7 8 -16 8 -8 0 -30 -23 -48 -51z"/>
<path d="M1925 2665 c-1 -35 3 -51 10 -47 5 3 3 -2 -5 -12 -15 -19 -15 -73 1
-92 5 -7 9 -16 8 -20 -4 -24 2 -55 10 -50 11 7 9 -13 -3 -33 -6 -10 -5 -12 2
-7 15 9 15 1 1 -26 -8 -15 -8 -19 0 -14 6 4 12 1 13 -6 0 -7 2 -26 4 -43 1
-16 5 -42 7 -57 4 -19 -3 -35 -25 -60 -16 -18 -26 -26 -22 -18 5 8 7 27 5 42
-1 14 2 29 8 33 16 9 13 38 -5 61 -14 18 -15 18 -4 -4 6 -13 9 -31 7 -40 -4
-14 -6 -13 -12 6 -10 31 -22 28 -17 -6 2 -15 -1 -79 -7 -141 -8 -89 -8 -118 2
-130 10 -12 9 -13 -2 -7 -10 7 -12 3 -6 -13 4 -13 2 -21 -5 -21 -7 0 -8 -6 -1
-18 6 -11 6 -24 0 -33 -5 -7 -9 -23 -9 -33 0 -11 -10 -30 -22 -43 -20 -22 -21
-23 -2 -24 10 0 13 -3 7 -6 -7 -2 -13 -13 -13 -24 0 -11 -11 -31 -25 -45 -29
-29 -30 -30 -10 -38 8 -3 14 -2 14 2 -3 19 2 35 8 28 4 -4 15 10 25 31 l17 38
0 -36 c1 -36 1 -37 54 -44 28 -4 81 -8 117 -9 64 -1 65 -1 62 24 -2 14 -3 32
-3 41 0 9 -7 16 -14 16 -8 0 -12 -4 -9 -8 2 -4 -3 -14 -11 -23 -17 -17 -45
-11 -45 9 0 8 -4 17 -10 20 -5 3 -10 -3 -10 -14 0 -11 9 -22 20 -26 31 -10 26
-36 -7 -31 -32 6 -49 21 -34 30 15 10 14 56 -1 57 -7 0 -23 2 -36 5 -26 5 -41
-21 -23 -39 8 -8 11 -6 11 8 0 17 2 18 10 5 8 -12 10 -12 10 5 0 17 2 17 10 5
13 -21 12 -43 -2 -34 -6 4 -8 3 -4 -4 9 -16 -8 -23 -41 -16 -25 5 -28 10 -29
45 l-1 39 46 2 46 1 -43 4 c-40 4 -42 5 -36 31 10 40 12 42 44 42 22 0 33 7
44 28 28 54 55 135 49 145 -3 6 -1 7 5 3 17 -10 26 58 12 98 -6 20 -16 36 -21
36 -6 0 -8 -4 -5 -9 3 -5 0 -11 -7 -14 -9 -3 -11 -19 -9 -47 3 -31 7 -39 14
-29 7 11 8 9 5 -6 -14 -52 -36 -100 -53 -112 -14 -10 -15 -16 -6 -25 14 -14
16 -32 3 -24 -5 3 -8 -2 -7 -12 1 -22 -39 -29 -47 -7 -4 8 -4 29 0 45 4 23 11
30 29 30 17 0 25 7 30 27 5 17 3 28 -4 31 -7 2 -12 14 -12 27 0 13 -4 26 -9
30 -14 8 -25 -35 -12 -48 16 -16 14 -57 -3 -57 -19 0 -26 35 -20 95 4 41 12
56 41 83 l36 33 -6 72 c-9 105 -15 139 -37 209 -12 40 -16 66 -10 73 6 7 7 15
3 18 -3 4 2 9 11 13 19 7 22 34 4 34 -9 0 -8 4 2 10 8 5 11 10 7 10 -4 0 -3 9
3 20 8 14 8 20 0 20 -6 0 -8 6 -4 13 5 8 2 8 -9 -2 -12 -9 -21 -10 -29 -3 -10
8 -13 -2 -13 -43z m37 7 c-7 -2 -12 -13 -13 -25 0 -13 -3 -16 -6 -9 -3 8 1 25
8 39 8 16 15 20 18 12 2 -7 -1 -15 -7 -17z m138 -943 c0 -14 -5 -19 -17 -17
-23 4 -28 25 -6 31 10 3 19 5 21 6 1 0 2 -8 2 -20z"/>
<path d="M1295 2679 c-11 -16 -1 -19 13 -3 7 8 8 14 3 14 -5 0 -13 -5 -16 -11z"/>
<path d="M1448 2623 c7 -3 16 -2 19 1 4 3 -2 6 -13 5 -11 0 -14 -3 -6 -6z"/>
<path d="M1528 2613 c7 -3 16 -2 19 1 4 3 -2 6 -13 5 -11 0 -14 -3 -6 -6z"/>
<path d="M305 2590 c-3 -5 -1 -10 4 -10 6 0 11 5 11 10 0 6 -2 10 -4 10 -3 0
-8 -4 -11 -10z"/>
<path d="M1875 2590 c3 -5 11 -10 16 -10 6 0 7 5 4 10 -3 6 -11 10 -16 10 -6
0 -7 -4 -4 -10z"/>
<path d="M370 2580 c0 -5 5 -10 11 -10 5 0 7 5 4 10 -3 6 -8 10 -11 10 -2 0
-4 -4 -4 -10z"/>
<path d="M1325 2581 c-3 -6 11 -13 32 -16 21 -3 45 -8 54 -9 22 -5 43 9 35 22
-4 6 -17 7 -34 3 -15 -5 -36 -5 -47 0 -27 11 -33 10 -40 0z"/>
<path d="M1486 2577 c3 -10 9 -15 12 -12 3 3 0 11 -7 18 -10 9 -11 8 -5 -6z"/>
<path d="M1860 2490 c6 -11 13 -20 16 -20 3 0 2 5 -1 10 -7 12 7 13 21 3 5 -5
1 0 -9 10 -26 23 -40 22 -27 -3z"/>
<path d="M2931 2483 c-10 -11 -15 -12 -21 -3 -10 16 -42 5 -70 -25 -22 -23
-22 -25 -4 -25 11 0 27 12 36 28 17 26 17 26 18 5 0 -13 6 -23 13 -23 22 0 49
25 46 42 -4 14 -6 14 -18 1z"/>
<path d="M2970 2480 c0 -11 5 -20 10 -20 6 0 10 9 10 20 0 11 -4 20 -10 20 -5
0 -10 -9 -10 -20z"/>
<path d="M1840 2474 c0 -7 9 -22 20 -35 25 -31 26 -12 0 21 -11 14 -20 20 -20
14z"/>
<path d="M2725 2469 c-11 -17 1 -21 15 -4 8 9 8 15 2 15 -6 0 -14 -5 -17 -11z"/>
<path d="M2185 2460 c-3 -6 1 -13 10 -16 19 -8 30 0 20 15 -8 14 -22 14 -30 1z"/>
<path d="M2790 2443 c1 -27 1 -27 15 -9 19 25 19 36 0 36 -10 0 -15 -10 -15
-27z"/>
<path d="M1921 2428 c0 -13 3 -17 6 -10 2 6 10 9 16 5 7 -4 6 1 -2 10 -18 22
-21 21 -20 -5z"/>
<path d="M1830 2424 c0 -8 5 -12 10 -9 6 4 8 11 5 16 -9 14 -15 11 -15 -7z"/>
<path d="M2727 2422 c-16 -18 -15 -18 13 -14 17 2 30 10 30 18 0 20 -24 17
-43 -4z"/>
<path d="M2190 2420 c0 -5 5 -10 10 -10 6 0 10 5 10 10 0 6 -4 10 -10 10 -5 0
-10 -4 -10 -10z"/>
<path d="M2960 2377 c0 -16 6 -23 20 -23 23 0 23 1 10 27 -14 26 -30 24 -30
-4z"/>
<path d="M1341 2373 c7 -12 15 -20 18 -17 3 2 -3 12 -13 22 -17 16 -18 16 -5
-5z"/>
<path d="M1372 2355 c0 -34 2 -37 13 -22 7 9 15 17 19 17 11 0 -1 -64 -13 -68
-6 -2 -11 -15 -11 -28 0 -17 -10 -30 -32 -44 -37 -22 -66 -25 -121 -9 -43 12
-44 18 -5 21 16 1 24 7 21 15 -3 7 0 13 6 13 6 0 11 -4 11 -8 0 -5 16 -9 35
-10 21 -1 33 3 30 8 -3 6 -1 10 4 10 6 0 11 -4 11 -10 0 -5 8 -10 17 -10 15 0
14 2 -3 15 -31 24 -79 29 -113 12 -17 -9 -31 -12 -31 -8 0 11 47 31 75 31 13
0 36 -5 51 -10 24 -9 25 -9 14 5 -8 10 -30 15 -62 15 -43 0 -54 -4 -79 -31
l-29 -31 0 26 c0 34 -16 33 -28 -2 -9 -27 -8 -29 49 -56 72 -34 138 -39 168
-12 27 25 61 96 61 128 0 29 -39 84 -40 58 -1 -10 -4 -8 -9 5 -7 15 -9 10 -9
-20z m-67 -105 c3 -6 -1 -7 -9 -4 -18 7 -21 14 -7 14 6 0 13 -4 16 -10z"/>
<path d="M1585 2370 c-11 -12 -20 -31 -21 -43 -2 -12 0 -16 2 -10 4 10 11 10
25 2 11 -6 51 -9 90 -8 38 1 72 -1 77 -6 4 -5 1 -5 -5 -1 -7 4 -13 2 -13 -3 0
-6 9 -11 19 -11 11 0 22 -4 25 -9 6 -9 46 -22 46 -15 0 9 -75 74 -86 74 -7 0
-14 5 -16 12 -3 9 -15 9 -49 0 -39 -10 -42 -9 -25 4 19 14 19 14 -2 14 -13 0
-35 -8 -50 -17 l-27 -17 19 22 c24 28 16 39 -9 12z m139 -36 c4 -11 1 -14 -11
-12 -9 2 -18 9 -21 16 -6 18 25 15 32 -4z m-97 -10 c-3 -3 -12 -4 -19 -1 -8 3
-5 6 6 6 11 1 17 -2 13 -5z"/>
<path d="M1850 2381 c0 -4 13 -24 30 -42 l30 -34 0 28 c0 21 -5 27 -21 27 -15
0 -19 5 -15 15 3 9 0 15 -9 15 -8 0 -15 -4 -15 -9z"/>
<path d="M1298 2375 c-1 -2 -21 -5 -43 -6 -49 -4 -92 -24 -105 -50 -9 -16 -7
-19 10 -19 11 0 25 9 32 20 13 20 40 28 36 11 -3 -10 0 -11 43 -11 17 0 28 4
24 10 -4 6 1 7 11 3 13 -5 15 -3 9 8 -5 8 -5 11 1 6 5 -5 10 -13 10 -18 3 -22
5 -23 13 -10 11 17 -1 46 -23 54 -8 3 -16 4 -18 2z m-28 -31 c0 -2 -7 -4 -15
-4 -8 0 -15 4 -15 10 0 5 7 7 15 4 8 -4 15 -8 15 -10z"/>
<path d="M1514 2364 c5 -14 1 -16 -21 -11 -24 5 -28 2 -29 -19 -1 -13 2 -24 8
-24 5 0 7 -4 3 -9 -3 -5 4 -12 14 -16 11 -3 23 -14 26 -24 4 -13 12 -17 25
-14 11 3 20 10 20 15 0 5 -4 7 -9 3 -5 -3 -22 6 -38 21 -18 16 -22 24 -10 20
12 -4 17 0 17 13 0 10 12 23 26 29 14 7 22 17 19 23 -5 7 -12 6 -23 -3 -12
-10 -14 -10 -8 0 4 8 1 12 -9 12 -12 0 -15 -5 -11 -16z"/>
<path d="M2758 2372 c-18 -3 -26 -32 -9 -32 10 0 36 29 30 33 -2 2 -12 2 -21
-1z"/>
<path d="M2864 2361 c-14 -14 1 -26 33 -25 27 1 39 6 41 18 3 13 -4 16 -33 14
-20 -2 -38 -5 -41 -7z"/>
<path d="M2795 2339 c-4 -6 -5 -13 -2 -16 8 -7 47 7 47 18 0 13 -37 11 -45 -2z"/>
<path d="M2737 2314 c-8 -8 1 -24 14 -24 5 0 9 7 9 15 0 15 -12 20 -23 9z"/>
<path d="M2154 2288 c4 -13 9 -35 12 -50 4 -15 15 -35 25 -44 22 -20 25 -14
32 64 l4 52 -40 0 c-36 0 -39 -2 -33 -22z m56 -34 c0 -23 -4 -34 -12 -32 -16
6 -21 50 -6 60 18 11 18 12 18 -28z"/>
<path d="M1594 2275 c-18 -14 -17 -14 10 -5 44 16 92 2 138 -41 45 -41 54 -44
78 -29 12 8 12 10 1 10 -11 0 -11 3 -1 14 10 13 7 13 -17 4 -25 -10 -32 -8
-57 15 -27 25 -81 47 -117 47 -8 0 -24 -7 -35 -15z"/>
<path d="M1471 2265 c0 -5 6 -19 14 -29 8 -11 13 -29 10 -40 -5 -18 -5 -19 5
-4 11 19 3 71 -10 63 -5 -3 -11 1 -13 7 -3 7 -6 9 -6 3z"/>
<path d="M1588 2244 c-16 -8 -28 -16 -28 -18 0 -8 35 0 43 9 5 7 10 7 15 0 9
-13 72 -15 72 -3 0 5 7 2 16 -6 16 -17 34 -21 34 -8 -1 12 -69 42 -98 42 -15
-1 -39 -8 -54 -16z m75 -1 c-7 -2 -19 -2 -25 0 -7 3 -2 5 12 5 14 0 19 -2 13
-5z"/>
<path d="M2945 2250 c-11 -5 -14 -9 -6 -9 8 -1 19 -8 26 -18 7 -9 17 -13 23
-9 17 11 15 26 -3 20 -11 -5 -13 -2 -9 10 7 18 -1 19 -31 6z"/>
<path d="M266 2205 c5 -22 7 -88 6 -147 -1 -60 1 -108 5 -108 5 0 8 -88 8
-195 -1 -107 2 -195 5 -195 4 0 6 -35 4 -77 -2 -67 -1 -71 5 -28 l8 50 1 -67
c1 -45 -2 -68 -10 -71 -7 -3 -8 -6 -2 -6 7 -1 9 -21 6 -56 -3 -35 -1 -55 6
-55 13 0 17 7 26 45 5 22 4 26 -4 15 -12 -18 -11 -34 -11 178 -1 151 -2 162
-17 150 -15 -12 -16 -11 -4 4 11 13 12 62 7 240 -3 123 -8 250 -10 283 l-4 60
72 -2 c277 -6 676 -7 682 -1 12 11 -132 18 -463 21 l-323 2 7 -40z"/>
<path d="M1574 2188 c33 -17 50 -19 100 -13 34 3 69 7 78 8 11 1 14 5 9 10 -6
6 -30 4 -60 -3 -43 -10 -58 -9 -98 4 -64 22 -76 19 -29 -6z"/>
<path d="M340 2180 c0 -7 677 -20 689 -12 2 1 2 4 0 6 -9 8 -689 14 -689 6z"/>
<path d="M1461 2181 c-8 -6 -9 -11 -3 -15 6 -3 14 -1 17 5 9 14 2 20 -14 10z"/>
<path d="M1970 2150 l-25 -21 25 7 c31 8 33 10 28 24 -2 8 -13 4 -28 -10z"/>
<path d="M318 2078 c3 -46 6 -156 6 -245 1 -88 5 -159 9 -156 5 3 7 -30 6 -73
-2 -44 0 -89 4 -100 4 -12 3 -34 -3 -49 -7 -18 -7 -32 -1 -39 5 -6 11 -37 12
-69 1 -31 6 -57 11 -57 7 0 11 12 10 30 0 3 -3 111 -6 240 -9 347 -26 600 -41
600 -9 0 -11 -22 -7 -82z"/>
<path d="M1136 2134 c-5 -14 -4 -15 9 -4 17 14 19 20 6 20 -5 0 -12 -7 -15
-16z"/>
<path d="M1315 2123 c-22 -14 -43 -32 -48 -39 -4 -7 -15 -11 -25 -8 -12 4 -13
3 -4 -3 10 -7 7 -18 -14 -48 -20 -30 -24 -46 -19 -71 3 -19 9 -33 13 -33 25 4
43 -4 53 -23 9 -16 9 -23 0 -26 -6 -2 -11 -10 -11 -18 0 -8 -4 -14 -10 -14
-14 0 -13 13 2 28 9 9 9 15 0 24 -7 7 -13 9 -13 5 -2 -12 -6 -22 -14 -41 -4
-10 -4 -21 1 -25 13 -9 13 -65 0 -73 -6 -5 -1 -8 12 -8 12 0 22 -4 22 -10 0
-5 -10 -10 -22 -10 -18 0 -15 -6 25 -45 54 -52 103 -80 112 -65 4 6 12 7 18 4
8 -4 7 -2 -1 7 -11 11 -14 12 -21 1 -7 -11 -9 -10 -14 2 -4 9 -15 16 -26 16
-26 0 -54 29 -48 50 3 13 0 16 -16 12 -14 -3 -18 -1 -13 6 4 7 15 12 24 12 15
1 16 2 1 13 -27 20 -31 78 -8 106 18 22 24 23 88 17 38 -3 75 -7 83 -9 7 -2
10 -2 6 0 -5 3 -8 8 -8 12 0 9 83 1 97 -11 13 -11 60 -1 71 16 10 16 56 41 47
25 -5 -6 -7 -39 -6 -71 1 -33 -2 -57 -7 -54 -16 10 -10 -33 6 -45 14 -11 15
-11 5 1 -18 19 -16 30 3 30 12 0 15 7 12 30 -3 17 -1 30 3 30 4 0 5 20 2 45
-3 29 -1 45 6 45 6 0 11 9 11 19 0 14 -6 19 -20 18 -11 -1 -20 -7 -20 -14 0
-9 -7 -10 -25 -3 -20 8 -23 7 -18 -7 4 -10 2 -14 -4 -10 -14 9 -25 -17 -13
-29 5 -5 -5 -8 -23 -7 -18 1 -32 2 -32 3 0 4 -57 9 -131 11 -81 3 -82 3 -72
25 11 23 47 29 60 9 5 -6 8 -6 8 3 0 19 38 14 43 -5 4 -17 5 -17 6 0 1 10 9
17 20 17 11 0 22 -8 24 -17 4 -17 5 -17 6 0 1 18 16 23 26 7 3 -5 12 -7 20 -3
10 3 15 -1 15 -12 0 -14 3 -15 15 -5 31 26 11 36 -93 45 -28 2 -56 6 -61 10
-5 3 -12 1 -15 -4 -4 -6 -19 -6 -39 0 -40 11 -46 11 -28 0 12 -8 8 -11 -15
-16 -16 -3 -37 -10 -46 -16 -10 -5 -18 -5 -18 -1 0 5 -11 15 -25 22 -14 7 -25
17 -25 22 0 5 4 6 10 3 6 -4 7 1 3 11 -5 13 -3 15 7 9 10 -6 12 -4 7 7 -3 10
6 27 24 44 27 26 29 26 29 7 0 -11 -7 -26 -15 -33 -16 -13 -21 -40 -7 -40 5 0
21 30 36 67 29 71 55 100 69 80 6 -8 7 -8 5 2 -6 23 -20 22 -63 -6z"/>
<path d="M1490 2134 c0 -13 3 -14 14 -5 11 10 20 10 36 1 18 -10 21 -19 18
-47 -4 -34 -4 -35 12 -15 16 19 17 19 51 -20 19 -22 41 -47 50 -56 9 -10 22
-26 28 -37 11 -18 12 -17 7 10 -5 34 -105 147 -150 170 -37 20 -66 19 -66 -1z"/>
<path d="M738 2123 c7 -3 16 -2 19 1 4 3 -2 6 -13 5 -11 0 -14 -3 -6 -6z"/>
<path d="M1800 2111 c0 -6 4 -13 10 -16 6 -3 7 1 4 9 -7 18 -14 21 -14 7z"/>
<path d="M1410 2088 c-35 -13 -19 -18 31 -10 37 7 40 9 18 13 -14 3 -36 2 -49
-3z"/>
<path d="M1330 2070 c0 -6 4 -10 10 -10 5 0 8 -10 6 -22 -2 -13 -8 -22 -14
-21 -13 3 -37 -25 -29 -33 3 -4 14 -3 24 1 31 12 186 8 233 -7 25 -7 52 -14
60 -13 18 0 27 45 10 45 -8 0 -10 -9 -7 -22 l6 -23 -19 23 c-22 27 -30 28 -31
5 0 -15 -2 -15 -9 2 -5 11 -9 14 -9 7 -1 -7 -5 -11 -10 -8 -5 3 -7 14 -4 25 5
21 -21 51 -45 51 -10 0 -26 -6 -37 -13 -36 -24 -53 -26 -77 -8 -30 23 -58 33
-58 21z m180 -35 c24 5 31 4 28 -6 -5 -15 -60 -19 -70 -5 -5 8 -11 7 -20 -2
-6 -6 -16 -12 -21 -12 -5 0 1 9 14 19 15 12 26 15 30 9 4 -6 20 -7 39 -3z"/>
<path d="M1130 2005 c-10 -12 -10 -15 4 -15 9 0 16 7 16 15 0 8 -2 15 -4 15
-2 0 -9 -7 -16 -15z"/>
<path d="M2864 1961 c-21 -16 -47 -37 -56 -47 -9 -11 -26 -29 -37 -41 -50 -55
-107 -194 -91 -222 10 -18 6 -26 40 84 12 39 27 75 34 80 7 6 15 18 19 28 4
10 11 15 17 12 5 -3 10 1 10 11 0 14 2 15 18 3 16 -13 16 -13 2 5 -13 16 -12
20 10 37 14 11 30 23 35 27 6 4 13 8 16 8 10 -1 39 26 39 35 0 15 -16 10 -56
-20z"/>
<path d="M2960 1976 c-18 -14 -70 -82 -70 -92 0 -4 8 -13 18 -21 16 -13 15
-14 -6 -10 -26 6 -81 -36 -62 -48 15 -9 12 -25 -4 -25 -7 0 -32 -24 -54 -53
-22 -29 -54 -67 -71 -84 -17 -17 -31 -42 -31 -54 0 -20 3 -18 28 13 15 20 39
44 55 54 15 11 25 24 23 31 -3 7 3 15 12 18 27 9 74 54 67 65 -10 17 6 34 17
19 7 -11 11 -11 15 -1 2 6 14 12 26 13 21 0 20 1 -3 10 -20 8 -22 12 -10 19 8
5 25 10 36 10 12 0 29 11 38 25 22 33 20 42 -5 19 -15 -13 -24 -16 -36 -8 -23
15 -28 34 -8 34 9 0 14 4 11 9 -4 5 7 15 24 23 16 7 30 18 30 24 0 17 -24 23
-40 10z m-80 -156 c0 -5 -5 -10 -11 -10 -5 0 -7 5 -4 10 3 6 8 10 11 10 2 0 4
-4 4 -10z"/>
<path d="M1832 1967 c-7 -8 -7 -19 2 -36 11 -20 14 -21 19 -7 5 11 3 15 -5 10
-7 -5 -9 1 -4 20 7 29 4 33 -12 13z"/>
<path d="M1780 1966 c0 -2 7 -9 15 -16 13 -11 14 -10 9 4 -5 14 -24 23 -24 12z"/>
<path d="M1124 1944 c9 -8 16 -22 16 -29 0 -8 5 -17 10 -20 6 -4 10 7 10 27 0
25 -3 29 -10 18 -8 -13 -10 -12 -10 3 0 9 -7 17 -16 17 -14 0 -14 -1 0 -16z"/>
<path d="M1757 1943 c-4 -3 -7 -13 -7 -22 1 -13 3 -13 11 2 11 19 8 33 -4 20z"/>
<path d="M563 1933 c-8 -3 -13 -22 -12 -51 1 -45 2 -46 12 -19 11 27 45 44 70
34 10 -4 13 2 9 19 -3 19 -10 24 -36 23 -17 0 -37 -3 -43 -6z"/>
<path d="M2970 1926 c0 -2 7 -7 16 -10 8 -3 12 -2 9 4 -6 10 -25 14 -25 6z"/>
<path d="M1781 1913 c-2 -20 11 -43 20 -37 5 3 9 10 9 15 0 6 -4 8 -9 4 -5 -3
-12 3 -14 12 -3 10 -5 13 -6 6z"/>
<path d="M983 1903 c-18 -3 -23 -11 -23 -35 0 -23 3 -28 13 -20 25 20 55 23
71 7 9 -9 16 -12 16 -6 0 5 -4 13 -10 16 -5 3 -10 15 -10 26 0 19 -10 21 -57
12z"/>
<path d="M1756 1875 c-3 -8 -1 -15 4 -15 6 0 10 7 10 15 0 8 -2 15 -4 15 -2 0
-6 -7 -10 -15z"/>
<path d="M590 1870 c0 -5 7 -10 15 -10 8 0 15 5 15 10 0 6 -7 10 -15 10 -8 0
-15 -4 -15 -10z"/>
<path d="M630 1865 c0 -8 2 -15 4 -15 2 0 6 7 10 15 3 8 1 15 -4 15 -6 0 -10
-7 -10 -15z"/>
<path d="M797 1862 c-32 -35 -12 -112 28 -112 48 0 71 63 39 108 -18 27 -45
28 -67 4z m63 -23 c0 -6 -4 -7 -10 -4 -5 3 -10 1 -10 -4 0 -6 5 -11 10 -11 14
0 13 -33 -2 -48 -14 -14 -32 -16 -23 -2 3 6 -1 7 -9 4 -10 -4 -16 -1 -16 9 0
9 -3 22 -6 31 -4 12 0 16 17 17 18 1 20 2 6 6 -14 4 -16 8 -6 19 12 15 49 2
49 -17z"/>
<path d="M820 1800 c0 -5 5 -10 11 -10 5 0 7 5 4 10 -3 6 -8 10 -11 10 -2 0
-4 -4 -4 -10z"/>
<path d="M1727 1846 c-9 -24 -9 -28 3 -21 6 3 10 0 10 -7 0 -7 -9 -19 -20 -26
-11 -7 -20 -19 -20 -27 0 -22 49 31 56 62 5 17 3 24 -4 19 -6 -3 -12 -1 -14 6
-3 7 -7 5 -11 -6z"/>
<path d="M985 1840 c-3 -5 -2 -10 4 -10 5 0 13 5 16 10 3 6 2 10 -4 10 -5 0
-13 -4 -16 -10z"/>
<path d="M1020 1840 c0 -5 5 -10 10 -10 6 0 10 5 10 10 0 6 -4 10 -10 10 -5 0
-10 -4 -10 -10z"/>
<path d="M1320 1844 c0 -9 40 -23 44 -15 3 5 -5 11 -19 13 -14 3 -25 4 -25 2z"/>
<path d="M1796 1833 c-6 -14 -5 -15 5 -6 7 7 10 15 7 18 -3 3 -9 -2 -12 -12z"/>
<path d="M623 1824 c1 -21 27 -23 27 -2 0 5 -4 7 -9 4 -5 -4 -11 0 -14 6 -3 7
-4 3 -4 -8z"/>
<path d="M560 1823 c0 -5 12 -26 26 -48 l27 -40 -36 34 -37 34 -38 -18 c-28
-14 -38 -25 -39 -44 -1 -18 0 -21 5 -9 4 9 19 26 34 38 22 17 31 19 48 10 11
-6 20 -15 20 -20 0 -5 13 -16 29 -24 16 -9 31 -26 35 -38 22 -75 17 -260 -7
-255 -7 1 -11 -3 -10 -9 1 -6 -10 -9 -28 -6 -34 5 -40 -13 -7 -21 24 -7 68 16
68 35 0 6 9 3 20 -7 11 -10 20 -30 20 -44 0 -14 4 -21 8 -16 4 6 45 10 91 10
l83 0 24 65 c28 78 34 242 10 275 -8 11 -11 26 -8 35 4 10 -2 9 -19 -6 -13
-12 -31 -24 -40 -27 -18 -6 -31 -53 -22 -85 3 -12 22 -31 42 -43 20 -12 31
-24 25 -26 -13 -4 -7 -43 7 -43 12 0 11 -27 -1 -35 -6 -4 -7 1 -3 11 5 13 3
15 -7 9 -9 -6 -21 1 -37 21 l-25 29 16 -32 c10 -21 12 -33 6 -33 -6 0 -8 -5
-4 -11 5 -8 9 -8 14 1 6 10 11 10 23 -1 13 -12 10 -38 -9 -67 -1 -2 -12 1 -23
8 -15 8 -21 8 -21 0 0 -6 -4 -9 -9 -5 -5 3 -12 1 -16 -5 -4 -6 6 -10 25 -10
17 0 29 -4 26 -9 -3 -5 -21 -5 -40 -1 -19 4 -39 5 -43 1 -4 -3 3 6 16 22 14
15 20 27 14 27 -6 0 -16 -6 -23 -14 -6 -8 -19 -12 -27 -9 -11 4 -14 2 -9 -5 4
-7 3 -12 -3 -12 -13 0 -24 17 -14 22 5 1 17 19 27 38 17 30 17 33 3 21 -14
-11 -17 -11 -18 0 0 8 -5 2 -11 -13 -5 -16 -14 -28 -19 -28 -6 0 -5 8 1 20 8
16 8 20 -4 20 -10 0 -13 6 -9 17 4 11 3 14 -5 9 -7 -4 -12 -19 -12 -34 0 -20
-3 -23 -9 -12 -6 8 -8 17 -5 21 5 9 6 142 1 176 -2 13 -6 26 -10 29 -11 11 -8
46 3 39 6 -3 10 -15 10 -25 0 -10 6 -25 14 -33 9 -8 13 -26 10 -43 -9 -53 -4
-89 15 -108 30 -29 44 -11 38 46 -5 39 -3 49 7 45 7 -3 19 -1 27 4 11 7 10 9
-6 9 -31 0 -44 13 -51 50 -5 23 -4 31 4 26 6 -3 13 -2 17 3 3 6 -3 8 -14 6
-19 -3 -65 38 -54 49 4 3 -1 6 -10 6 -9 0 -17 5 -17 10 0 6 -8 10 -18 10 -10
0 -28 9 -40 20 -12 12 -22 17 -22 13z m70 -65 c0 -19 -2 -20 -10 -8 -13 19
-13 30 0 30 6 0 10 -10 10 -22z m258 -36 c14 -9 12 -77 -3 -77 -6 0 -8 18 -6
40 l3 40 -21 -19 c-12 -11 -24 -17 -27 -13 -9 9 6 28 17 22 5 -4 9 -1 9 4 0
13 10 14 28 3z m-18 -43 c0 -11 -4 -17 -10 -14 -6 4 -7 -7 -4 -27 l6 -33 -22
34 c-11 18 -20 34 -18 35 2 0 12 6 23 13 11 6 21 12 23 12 1 1 2 -8 2 -20z
m-150 -110 c0 -35 -2 -40 -15 -29 -10 8 -12 18 -6 29 5 9 6 22 4 29 -3 6 0 12
6 12 6 0 11 -18 11 -41z"/>
<path d="M1000 1805 c-7 -8 -17 -12 -22 -9 -6 4 -5 -3 1 -15 9 -16 9 -21 0
-21 -28 0 8 -16 44 -19 5 -1 5 -6 2 -11 -4 -6 -12 -7 -18 -4 -9 5 -9 4 0 -6 9
-10 16 -9 34 4 20 14 21 16 5 16 -11 0 -16 5 -13 13 3 6 8 20 12 29 9 24 -28
43 -45 23z m33 -20 c-6 -17 -25 -15 -31 3 -2 7 5 12 17 12 14 0 19 -5 14 -15z"/>
<path d="M1170 1812 c0 -7 -1 -15 -2 -19 -2 -3 5 -7 15 -9 15 -2 16 0 5 14 -7
9 -14 19 -15 21 -2 2 -3 -1 -3 -7z"/>
<path d="M1380 1810 c0 -7 -8 -10 -19 -7 -27 7 -36 -22 -14 -39 12 -9 41 -13
80 -12 34 1 57 6 50 10 -13 9 -4 11 31 8 16 -1 22 4 22 20 0 19 -5 21 -47 20
-27 0 -60 2 -75 6 -19 4 -28 2 -28 -6z"/>
<path d="M1799 1803 c-13 -15 -12 -15 9 -4 23 12 28 21 13 21 -5 0 -15 -7 -22
-17z"/>
<path d="M1306 1787 c3 -10 9 -15 12 -12 3 3 0 11 -7 18 -10 9 -11 8 -5 -6z"/>
<path d="M720 1761 c0 -23 1 -23 19 -7 19 17 20 17 31 -4 20 -37 21 -59 2 -54
-15 5 -14 4 1 -6 9 -6 15 -15 12 -20 -3 -5 -1 -11 5 -15 18 -11 11 88 -8 110
-25 30 -62 28 -62 -4z"/>
<path d="M935 1780 c-3 -5 -1 -10 4 -10 6 0 11 5 11 10 0 6 -2 10 -4 10 -3 0
-8 -4 -11 -10z"/>
<path d="M1809 1773 c-12 -16 -12 -17 2 -6 9 7 20 9 24 5 5 -4 5 -1 1 6 -9 16
-11 15 -27 -5z"/>
<path d="M2991 1764 c0 -11 3 -14 6 -6 3 7 2 16 -1 19 -3 4 -6 -2 -5 -13z"/>
<path d="M1081 1756 c-12 -14 -12 -16 3 -10 15 6 18 0 18 -36 1 -3 -2 -18 -6
-35 -6 -28 -5 -29 9 -11 8 11 15 29 15 40 1 19 2 19 11 4 5 -10 15 -18 21 -18
7 0 7 4 -1 13 -6 8 -8 17 -4 20 3 4 -1 7 -9 7 -9 0 -22 10 -30 21 -12 20 -15
20 -27 5z"/>
<path d="M2905 1760 c3 -5 18 -10 32 -10 32 0 28 5 -10 14 -19 4 -26 3 -22 -4z"/>
<path d="M930 1740 c14 -10 27 -17 29 -14 6 5 -31 33 -44 33 -5 1 1 -8 15 -19z"/>
<path d="M2125 1750 c3 -5 13 -10 21 -10 11 0 12 -4 5 -19 -9 -16 -7 -20 13
-25 13 -3 32 -9 42 -13 16 -6 15 -4 -2 13 -12 13 -22 16 -26 10 -12 -17 -10
12 2 35 10 17 7 19 -25 19 -22 0 -34 -4 -30 -10z"/>
<path d="M1726 1735 c-9 -26 -7 -32 5 -12 6 10 9 21 6 23 -2 3 -7 -2 -11 -11z"/>
<path d="M1785 1739 c-11 -16 -1 -19 13 -3 7 8 8 14 3 14 -5 0 -13 -5 -16 -11z"/>
<path d="M2000 1740 c0 -5 5 -10 11 -10 5 0 7 5 4 10 -3 6 -8 10 -11 10 -2 0
-4 -4 -4 -10z"/>
<path d="M2236 1735 c5 -12 2 -14 -12 -8 -17 6 -17 5 -5 -11 11 -13 16 -14 22
-4 12 18 11 38 -1 38 -5 0 -7 -7 -4 -15z"/>
<path d="M1678 1715 c-6 -13 -16 -22 -22 -18 -6 3 -8 3 -4 -2 4 -4 3 -17 -3
-29 -6 -14 -1 -10 15 9 14 17 26 34 26 38 0 5 4 5 10 2 6 -3 7 1 4 9 -8 22
-13 20 -26 -9z"/>
<path d="M2932 1728 c-17 -17 -15 -32 8 -53 11 -10 20 -22 20 -27 0 -17 -29
-7 -48 17 -24 30 -33 31 -52 5 -8 -11 -20 -20 -27 -20 -7 0 -13 -7 -13 -15 0
-8 9 -15 19 -15 10 0 21 -7 25 -15 5 -15 46 -22 46 -8 0 4 -10 18 -22 31 l-23
24 25 -7 c14 -4 29 -14 33 -21 9 -16 37 -19 37 -3 0 6 9 8 20 4 29 -9 25 13
-7 42 -22 19 -25 25 -14 32 8 5 11 16 8 25 -8 19 -19 20 -35 4z"/>
<path d="M1604 1718 c-4 -7 -4 -10 1 -6 4 4 15 2 24 -5 14 -11 14 -10 2 6 -16
20 -18 21 -27 5z"/>
<path d="M2265 1720 c3 -5 1 -10 -4 -10 -6 0 -11 -7 -11 -15 0 -12 4 -11 20 5
24 24 25 30 4 30 -8 0 -12 -4 -9 -10z"/>
<path d="M525 1680 c14 -23 24 -44 21 -48 -3 -5 -1 -13 3 -20 5 -9 12 -8 27 3
19 15 19 15 -1 10 -11 -3 -5 2 13 10 41 19 43 40 2 32 -24 -5 -30 -3 -30 11 0
12 -2 14 -8 4 -6 -9 -12 -5 -22 13 -7 14 -17 25 -22 25 -4 0 3 -18 17 -40z"/>
<path d="M1070 1709 c0 -5 5 -7 10 -4 6 3 10 8 10 11 0 2 -4 4 -10 4 -5 0 -10
-5 -10 -11z"/>
<path d="M1303 1689 c-1 -10 2 -19 8 -19 11 0 12 27 1 34 -4 2 -9 -4 -9 -15z"/>
<path d="M1427 1703 c-5 -4 -25 -8 -45 -9 -20 -1 -41 -3 -45 -3 -4 -1 -2 -7 5
-15 7 -8 18 -11 23 -7 6 5 18 11 29 15 15 5 17 2 13 -14 -3 -11 -1 -20 4 -20
5 0 9 4 9 9 0 6 18 9 40 7 28 -2 43 1 49 12 5 8 14 12 20 8 6 -4 9 -12 6 -17
-4 -5 -2 -9 4 -9 5 0 13 5 16 10 3 6 1 10 -4 10 -6 0 -11 7 -11 15 0 22 -31
18 -37 -4 -6 -23 -39 -20 -57 4 -6 9 -15 13 -19 8z"/>
<path d="M1880 1668 c5 -23 12 -51 15 -60 4 -11 3 -18 -4 -18 -6 0 -11 -4 -11
-9 0 -9 -77 -142 -118 -203 -25 -38 -123 -94 -148 -84 -6 2 -16 0 -22 -6 -12
-12 -46 -17 -161 -22 -77 -3 -86 -2 -102 18 -12 15 -14 25 -7 34 8 9 7 11 -6
6 -13 -5 -15 -14 -11 -36 6 -25 4 -29 -12 -26 -16 3 -18 14 -17 113 1 65 -2
100 -6 85 -4 -14 -8 -37 -9 -51 -1 -15 -8 -42 -16 -60 l-15 -34 2 30 c1 17 7
36 13 44 7 11 7 13 -2 7 -10 -5 -11 -1 -5 16 5 13 8 30 7 38 -1 8 -3 31 -4 50
-4 67 -22 -7 -23 -97 -1 -79 -8 -98 -25 -70 -9 15 -5 48 9 65 7 8 7 12 -1 12
-6 0 -11 -4 -11 -9 0 -16 -49 -9 -53 8 -5 22 -27 -31 -27 -66 0 -18 4 -24 15
-20 8 4 17 2 20 -4 4 -5 11 -7 16 -4 16 11 51 -5 41 -18 -5 -7 -13 -48 -16
-92 -4 -44 -9 -93 -13 -109 -3 -19 -2 -26 6 -22 6 4 11 22 12 39 0 28 2 29 10
12 8 -17 8 -15 4 8 -3 16 -1 27 5 27 7 0 9 8 5 20 -5 16 -2 20 14 20 22 0 29
-16 9 -22 -8 -3 -8 -9 0 -24 9 -15 11 -16 12 -3 0 18 29 29 70 28 24 -1 23 -1
-7 -15 -17 -7 -34 -18 -38 -24 -4 -6 8 -5 28 4 20 8 38 12 41 8 3 -3 6 1 6 9
0 8 3 24 6 37 5 17 2 22 -12 21 -11 0 -14 -3 -6 -6 23 -9 12 -23 -18 -23 -38
0 -100 25 -100 40 0 6 3 9 8 6 4 -2 6 14 4 36 -3 30 -1 39 8 33 6 -4 9 -13 6
-20 -9 -25 23 -37 111 -41 157 -8 296 23 387 85 25 18 46 28 46 24 0 -11 51
88 55 107 6 27 76 154 98 179 18 20 19 23 5 18 -12 -4 -18 -1 -18 8 0 8 -9 15
-20 15 -11 0 -20 5 -20 10 0 13 33 13 65 -2 18 -8 25 -19 25 -39 0 -15 5 -31
11 -34 7 -5 8 5 4 29 -6 29 -4 36 9 36 48 0 156 -74 156 -107 0 -18 10 -16 26
4 14 20 2 43 -22 43 -7 0 -20 10 -29 23 -8 12 -18 21 -21 19 -3 -2 -9 0 -12 4
-4 4 8 4 27 0 18 -3 40 -6 48 -6 8 0 12 -4 9 -9 -3 -5 4 -11 15 -14 12 -3 19
-10 16 -14 -3 -5 4 -9 16 -10 58 -1 68 -3 61 -14 -4 -7 -1 -10 7 -7 7 2 22 -3
32 -13 18 -16 18 -18 1 -38 -13 -15 -21 -18 -31 -10 -7 6 -10 16 -6 22 3 6 1
7 -6 3 -6 -4 -25 2 -41 14 -33 23 -44 19 -69 -28 -7 -12 -17 -20 -22 -16 -14
8 -98 11 -93 2 2 -3 -2 -9 -8 -12 -7 -3 4 -3 24 0 47 8 80 -2 58 -16 -13 -8
-12 -10 3 -10 9 0 17 -3 17 -6 0 -10 -43 -42 -99 -75 -29 -16 -51 -33 -48 -35
10 -11 93 36 126 70 19 20 41 36 47 36 7 0 16 5 20 12 5 8 2 9 -10 5 -14 -6
-16 -3 -10 16 9 32 43 62 56 49 6 -6 2 -17 -14 -31 l-23 -22 29 11 c23 8 34 7
62 -11 l33 -20 21 33 c11 18 20 40 20 49 0 25 -41 56 -97 72 -28 9 -62 21 -75
28 -13 7 -70 16 -128 21 -58 4 -126 11 -151 14 l-47 6 8 -44z m-718 -318 c-6
-16 -11 -20 -16 -11 -4 6 -2 19 5 27 16 20 21 12 11 -16z"/>
<path d="M490 1693 c1 -5 7 -19 15 -33 19 -34 19 -38 -7 -43 -23 -4 -23 -4 -1
-6 20 -1 39 -37 42 -81 1 -8 2 -32 3 -52 3 -41 5 -43 28 -28 12 8 12 10 1 10
-9 0 -12 8 -9 25 3 13 0 26 -6 29 -7 3 -6 8 4 15 9 6 10 11 3 11 -6 0 2 13 18
29 16 16 29 35 29 43 0 7 -8 4 -18 -9 -20 -26 -56 -25 -58 3 -2 23 -31 94 -38
94 -4 0 -6 -3 -6 -7z m75 -123 c3 -5 1 -10 -4 -10 -6 0 -11 5 -11 10 0 6 2 10
4 10 3 0 8 -4 11 -10z"/>
<path d="M956 1692 c-3 -5 1 -18 9 -28 8 -10 15 -29 15 -42 0 -13 4 -20 10
-17 6 3 7 -1 4 -9 -3 -9 -10 -13 -15 -10 -12 7 -11 -13 2 -38 8 -15 8 -19 0
-14 -6 4 -11 0 -11 -8 0 -9 6 -16 13 -16 9 0 9 -2 -1 -9 -11 -7 -11 -9 2 -14
9 -4 16 -2 16 3 0 6 5 10 11 10 6 0 8 -7 5 -16 -4 -9 -2 -13 5 -8 8 4 9 -1 4
-16 -5 -15 -4 -20 4 -16 6 4 11 4 12 -1 0 -4 2 -21 4 -38 l4 -30 -22 27 c-12
15 -34 30 -50 33 -40 10 -43 24 -5 21 18 -2 25 -1 16 1 -10 2 -18 8 -18 13 0
6 -10 5 -23 -1 -18 -8 -24 -20 -26 -51 l-2 -40 56 4 57 3 25 -59 c14 -33 20
-62 15 -65 -5 -3 -14 -16 -21 -29 -7 -12 -16 -20 -20 -17 -5 2 -14 -9 -21 -26
-17 -41 -60 -65 -60 -33 0 20 25 45 35 36 5 -4 5 -2 1 5 -12 22 -34 2 -56 -53
-13 -30 -20 -57 -17 -60 3 -3 8 3 11 14 4 10 24 27 45 37 25 11 42 26 46 42 3
13 10 21 15 18 5 -3 14 4 21 16 9 18 13 19 21 8 8 -11 9 -11 5 2 -3 9 -2 21 2
27 4 7 14 -8 24 -34 9 -24 12 -42 7 -39 -6 3 -10 1 -10 -4 0 -6 6 -11 13 -11
8 0 19 -17 25 -37 10 -34 9 -36 -3 -19 -8 10 -16 24 -18 30 -6 17 -17 3 -42
-61 -14 -33 -31 -59 -41 -61 -10 -3 -14 0 -10 7 4 6 3 11 -1 11 -5 0 -14 -9
-21 -21 -24 -39 -23 -12 1 34 21 38 22 44 7 35 -10 -7 -21 -23 -24 -37 -7 -31
-30 -62 -48 -65 -7 -1 -19 -5 -27 -10 -11 -7 -13 -4 -7 18 6 23 5 26 -7 14 -8
-7 -12 -19 -10 -26 3 -7 1 -12 -5 -10 -6 2 -17 -6 -26 -17 -14 -18 -14 -17 -5
18 6 22 19 53 30 70 10 18 19 39 19 47 0 25 -43 -52 -55 -99 -7 -25 -18 -47
-25 -49 -9 -3 -11 2 -7 17 3 13 0 21 -8 21 -8 0 -11 -10 -8 -27 2 -22 2 -24
-5 -9 -8 19 -9 18 -25 -4 -11 -16 -22 -21 -37 -17 -12 3 -19 3 -16 0 6 -7 -32
-43 -46 -43 -4 0 -8 7 -8 16 0 9 -7 14 -17 12 -10 -2 -17 -11 -15 -20 1 -8 -5
-21 -13 -28 -13 -11 -18 -11 -28 0 -9 10 -9 11 1 5 8 -4 13 -2 11 6 -1 8 1 22
6 32 4 10 5 21 1 24 -3 4 -6 -1 -6 -10 0 -9 -4 -17 -10 -17 -5 0 -10 -7 -10
-16 0 -8 -5 -12 -11 -8 -7 4 -7 -1 1 -16 11 -20 10 -22 -4 -17 -11 5 -16 1
-16 -13 0 -19 3 -19 58 9 94 47 144 68 192 81 25 6 59 18 75 25 75 34 156 65
168 65 8 0 26 28 41 63 23 51 29 59 36 42 8 -22 -7 -64 -30 -82 -18 -15 -6
-17 21 -3 10 6 19 19 19 30 0 33 18 31 24 -3 10 -60 5 -291 -7 -306 -9 -12 -9
-13 1 -7 6 4 12 2 12 -3 0 -6 -7 -11 -15 -11 -17 0 -20 -16 -6 -24 5 -4 11 0
14 6 2 7 5 -13 6 -46 1 -40 -4 -66 -15 -84 -9 -13 -11 -21 -5 -18 7 5 11 -2
11 -16 0 -19 -2 -20 -10 -8 -7 10 -8 0 -5 -35 3 -39 2 -43 -4 -20 -8 29 -9 29
-10 5 0 -14 -10 -43 -21 -65 -23 -45 -24 -49 -9 -39 8 4 9 -1 4 -16 -5 -16 -4
-20 5 -15 6 4 10 15 8 24 -3 9 1 30 8 46 7 17 13 23 13 15 1 -28 -47 -244 -73
-334 -24 -84 -27 -112 -7 -90 7 7 51 163 51 180 0 3 4 2 10 -1 5 -3 7 0 4 8
-3 8 4 66 15 129 51 292 62 601 28 778 -5 26 -89 234 -99 248 -7 8 -7 12 0 12
6 0 16 -9 22 -21 7 -11 14 -18 17 -15 4 3 -1 14 -10 24 -10 10 -14 22 -10 25
3 4 2 7 -4 7 -19 0 -22 39 -5 51 13 7 13 9 2 6 -16 -4 -43 58 -35 81 6 15 -7
16 -23 0 -9 -9 -10 5 -7 58 3 39 1 63 -4 56 -6 -10 -10 -8 -14 8 -4 16 -2 20
8 16 8 -3 16 0 19 7 2 7 5 -6 6 -28 2 -35 3 -37 10 -15 l8 25 1 -24 c1 -31 12
-21 15 13 2 18 -3 30 -16 37 -11 6 -16 15 -11 22 5 9 3 9 -9 0 -8 -7 -18 -10
-21 -6 -4 3 -7 1 -7 -5 0 -7 -5 -12 -11 -12 -5 0 -8 4 -4 9 3 5 1 12 -4 15 -5
4 -12 2 -15 -2z m30 -277 l29 -15 -40 2 c-22 1 -34 3 -27 6 7 2 10 8 6 13 -7
13 -1 11 32 -6z"/>
<path d="M1606 1693 c-4 -5 -13 -8 -19 -8 -7 -1 -11 -6 -10 -12 2 -7 -6 -15
-17 -18 -11 -4 -20 -12 -20 -18 0 -7 -4 -6 -10 3 -8 12 -10 12 -10 1 0 -10
-12 -12 -50 -9 -34 3 -53 1 -58 -7 -4 -7 -14 -15 -22 -18 -9 -4 -4 -6 10 -4
14 1 28 9 32 17 5 12 7 12 7 -2 1 -10 8 -18 17 -18 9 0 12 5 8 13 -6 9 -4 9 8
-1 11 -9 18 -10 23 -2 3 5 14 10 24 10 10 0 24 7 31 15 7 9 19 14 27 11 7 -3
13 -1 13 4 0 5 7 16 16 25 9 9 14 18 12 20 -3 3 -8 2 -12 -2z"/>
<path d="M1775 1690 c3 -5 -3 -10 -14 -10 -12 0 -21 -4 -21 -9 0 -5 -7 -12
-16 -15 -14 -5 -15 -4 -4 9 7 8 9 15 4 15 -5 0 -16 -13 -25 -29 -11 -18 -31
-33 -55 -41 -41 -14 -83 -40 -84 -52 0 -11 45 10 152 71 89 51 110 71 72 71
-8 0 -12 -4 -9 -10z"/>
<path d="M457 1684 c-4 -4 -7 -19 -6 -33 l0 -26 10 24 c10 26 8 47 -4 35z"/>
<path d="M2284 1676 c-4 -9 -4 -20 0 -23 3 -4 6 2 7 13 0 16 2 16 10 -4 5 -13
13 -21 18 -17 6 3 26 -1 45 -9 33 -14 46 -12 46 6 0 5 -6 8 -12 6 -21 -4 -72
12 -90 29 -16 14 -18 14 -24 -1z"/>
<path d="M940 1646 c0 -2 8 -10 18 -17 15 -13 16 -12 3 4 -13 16 -21 21 -21
13z"/>
<path d="M1063 1615 c-1 -23 3 -35 10 -32 15 5 16 59 1 64 -5 2 -10 -12 -11
-32z"/>
<path d="M1270 1634 c0 -11 28 -33 34 -27 3 4 6 1 6 -5 0 -7 7 -12 15 -12 8 0
15 -4 15 -10 0 -5 11 -10 24 -10 13 0 26 -5 28 -11 3 -9 34 -17 78 -21 24 -2
80 14 80 23 0 5 -11 4 -24 -1 -13 -5 -27 -6 -30 -3 -3 3 -20 6 -37 5 -17 0
-47 8 -67 18 -19 11 -38 17 -42 15 -4 -3 -13 2 -20 10 -7 8 -19 15 -26 15 -8
0 -14 5 -14 10 0 6 -4 10 -10 10 -5 0 -10 -3 -10 -6z"/>
<path d="M2755 1623 c-8 -24 -51 -73 -65 -73 -5 0 -11 -6 -11 -12 -3 -26 3
-132 7 -139 2 -4 -2 -12 -9 -18 -15 -12 -22 -146 -9 -155 5 -3 7 18 4 47 -3
41 -2 49 8 40 7 -6 13 -35 14 -65 2 -60 8 -73 39 -90 20 -10 21 -10 9 5 -8 9
-11 25 -7 36 3 10 1 22 -4 25 -6 4 -8 13 -5 21 3 8 2 20 -2 27 -28 44 9 113
58 106 22 -3 22 -4 -10 -23 -29 -17 -32 -23 -26 -50 8 -38 12 -41 25 -28 6 6
18 9 25 6 8 -3 14 0 14 6 0 6 -9 11 -19 11 -11 0 -23 5 -26 11 -9 13 29 50 47
47 20 -4 28 -47 18 -92 -4 -23 -10 -72 -12 -111 -3 -69 -3 -70 22 -69 30 0 90
30 90 44 0 14 -8 13 -41 -7 -26 -16 -31 -16 -39 -3 -6 8 -7 22 -3 30 11 24 20
184 11 195 -4 5 -8 17 -8 27 0 34 -78 45 -115 16 -20 -16 -25 -17 -25 -5 0 9
5 17 11 19 5 2 15 23 20 47 5 25 21 55 34 67 25 23 33 44 16 44 -5 0 -11 -7
-15 -15 -6 -16 -36 -21 -36 -6 0 5 6 14 14 20 8 7 14 27 14 46 0 39 -4 44 -13
18z m-25 -95 c-1 -7 -7 -24 -15 -38 l-14 -25 3 30 c2 17 4 33 5 38 2 12 21 8
21 -5z m-23 -105 c-3 -10 -5 -4 -5 12 0 17 2 24 5 18 2 -7 2 -21 0 -30z"/>
<path d="M795 1610 c3 -5 8 -10 11 -10 2 0 4 5 4 10 0 6 -5 10 -11 10 -5 0 -7
-4 -4 -10z"/>
<path d="M2410 1611 c0 -6 4 -13 10 -16 6 -3 7 1 4 9 -7 18 -14 21 -14 7z"/>
<path d="M451 1594 c0 -11 3 -14 6 -6 3 7 2 16 -1 19 -3 4 -6 -2 -5 -13z"/>
<path d="M1241 1594 c5 -6 10 -23 11 -38 1 -14 5 -26 9 -26 3 0 6 -7 6 -15 0
-8 -4 -15 -9 -15 -4 0 -8 -7 -8 -16 0 -14 2 -14 16 1 24 24 11 121 -16 121
-13 0 -16 -4 -9 -12z"/>
<path d="M2050 1600 c0 -12 -50 -70 -61 -70 -4 0 -1 14 8 31 8 16 12 33 9 36
-3 4 -6 0 -6 -8 0 -11 -2 -11 -10 1 -7 11 -10 7 -11 -20 -1 -19 -1 -42 0 -51
1 -8 -11 -28 -26 -44 -15 -16 -23 -25 -16 -22 6 4 14 3 18 -3 10 -16 24 -2 19
18 -3 11 13 35 43 66 46 48 61 76 42 76 -5 0 -9 -5 -9 -10z"/>
<path d="M1144 1589 c-3 -6 -14 -9 -24 -6 -9 2 -28 -4 -41 -14 -18 -15 -20
-18 -5 -12 15 5 18 3 13 -10 -3 -9 -2 -17 3 -17 6 0 10 12 10 27 0 26 1 26 16
7 11 -13 17 -15 20 -6 7 14 34 16 34 2 0 -5 -4 -10 -9 -10 -5 0 -12 -7 -15
-16 -3 -8 -2 -12 4 -9 6 3 10 -1 10 -9 0 -10 -6 -13 -15 -10 -9 4 -15 0 -16
-7 0 -8 -4 -5 -9 6 -9 20 -9 20 -9 0 -1 -15 -3 -17 -10 -7 -6 10 -10 8 -14 -9
-5 -19 -8 -20 -21 -10 -9 8 -13 18 -9 24 3 6 1 7 -5 3 -8 -5 -8 -13 -1 -30 11
-23 11 -23 59 -7 42 14 50 22 68 62 l19 47 -23 11 c-16 7 -25 7 -30 0z"/>
<path d="M841 1580 c0 -8 4 -22 9 -30 12 -18 12 -2 0 25 -6 13 -9 15 -9 5z"/>
<path d="M1030 1574 c0 -8 -4 -12 -10 -9 -5 3 -10 -3 -10 -14 0 -14 5 -19 15
-15 13 6 22 54 10 54 -3 0 -5 -7 -5 -16z"/>
<path d="M2391 1578 c0 -13 59 -65 59 -53 0 4 -9 20 -21 36 -21 30 -39 38 -38
17z"/>
<path d="M422 1555 c0 -16 2 -22 5 -12 2 9 2 23 0 30 -3 6 -5 -1 -5 -18z"/>
<path d="M495 1570 c-3 -5 -2 -10 4 -10 5 0 13 5 16 10 3 6 2 10 -4 10 -5 0
-13 -4 -16 -10z"/>
<path d="M460 1560 c-9 -6 -10 -10 -3 -10 6 0 15 5 18 10 8 12 4 12 -15 0z"/>
<path d="M595 1560 c-3 -5 -2 -10 4 -10 5 0 13 5 16 10 3 6 2 10 -4 10 -5 0
-13 -4 -16 -10z"/>
<path d="M2315 1560 c-3 -6 1 -7 9 -4 18 7 21 14 7 14 -6 0 -13 -4 -16 -10z"/>
<path d="M772 1534 c-7 -14 -8 -23 -3 -20 5 4 11 2 13 -4 2 -6 9 0 17 12 13
21 13 22 -2 9 -19 -15 -23 -1 -5 17 7 7 8 12 2 12 -6 0 -16 -12 -22 -26z"/>
<path d="M465 1530 c-21 -23 -11 -27 12 -5 9 10 23 13 35 9 14 -4 18 -2 14 5
-11 17 -41 13 -61 -9z"/>
<path d="M2385 1540 c-4 -6 14 -19 38 -30 25 -11 48 -26 50 -33 3 -7 6 -5 6 5
1 16 -49 48 -76 48 -8 0 -11 5 -8 10 3 6 4 10 1 10 -3 0 -8 -5 -11 -10z"/>
<path d="M475 1505 l-30 -13 27 -7 c16 -4 26 -10 24 -14 -3 -4 6 -8 20 -9 33
-3 30 5 -8 23 -22 10 -25 14 -10 11 14 -3 22 1 22 10 0 17 -6 17 -45 -1z"/>
<path d="M582 1500 c-7 -11 -9 -20 -4 -20 4 0 13 9 20 20 7 11 9 20 4 20 -4 0
-13 -9 -20 -20z"/>
<path d="M932 1508 c-14 -14 -16 -28 -3 -28 5 0 11 9 14 20 6 23 5 24 -11 8z"/>
<path d="M2341 1488 c-21 -20 -31 -26 -28 -15 4 9 2 17 -3 17 -6 0 -10 -4 -10
-10 0 -6 -9 -6 -26 1 -15 5 -29 7 -32 4 -3 -3 -1 -5 5 -5 6 0 8 -11 5 -25 -3
-19 -12 -26 -38 -31 -19 -3 -31 -10 -28 -15 3 -5 -7 -10 -23 -10 -26 -2 -26
-2 -4 -6 23 -5 49 5 99 36 17 10 20 16 10 22 -19 12 -3 22 23 14 22 -7 22 -9
-17 -42 -21 -19 -48 -42 -59 -52 -11 -10 -27 -21 -35 -24 -12 -4 -12 -6 2 -6
9 -1 20 4 23 10 4 6 13 8 21 5 7 -3 18 4 24 15 6 11 15 17 21 14 17 -11 9 -24
-26 -36 -32 -12 -40 -23 -59 -81 -3 -10 -29 -33 -59 -52 -56 -36 -94 -81 -77
-91 5 -3 14 4 21 17 6 12 21 31 31 42 l20 21 -8 -25 c-4 -14 -8 -35 -9 -47 0
-29 -3 -29 -14 -1 -6 18 -9 19 -14 5 -5 -13 4 -22 33 -37 32 -16 38 -17 33 -5
-3 9 2 36 12 61 9 25 15 48 12 50 -3 3 -14 -19 -26 -48 -13 -34 -20 -45 -20
-30 -1 34 25 89 47 101 30 16 33 14 21 -16 -7 -20 -7 -25 0 -18 6 6 13 30 16
54 7 57 18 76 52 89 15 5 37 14 48 18 11 4 23 7 27 6 4 -1 4 6 1 15 -5 13 -2
15 23 9 16 -4 45 -15 64 -25 19 -10 49 -21 65 -24 17 -3 24 -4 18 -1 -8 3 -13
24 -13 49 0 37 -5 47 -39 78 -29 26 -45 34 -62 30 -18 -5 -21 -3 -16 10 9 23
7 22 -32 -15z m24 -8 c-3 -5 -1 -18 4 -27 9 -16 10 -16 11 5 0 31 20 27 65
-14 42 -38 38 -54 -14 -54 -21 0 -23 3 -17 31 5 27 4 30 -9 19 -8 -7 -29 -14
-46 -16 -25 -3 -30 -1 -25 12 3 9 2 12 -5 8 -6 -3 -9 -15 -6 -25 3 -11 -2 -27
-11 -35 -15 -15 -16 -15 -22 2 -5 14 4 31 33 62 40 41 55 52 42 32z m35 -76
c0 -8 -5 -12 -10 -9 -6 4 -8 11 -5 16 9 14 15 11 15 -7z"/>
<path d="M2430 1421 c0 -5 7 -12 16 -15 14 -5 15 -4 4 9 -14 17 -20 19 -20 6z"/>
<path d="M1550 1500 c0 -5 5 -10 11 -10 5 0 7 5 4 10 -3 6 -8 10 -11 10 -2 0
-4 -4 -4 -10z"/>
<path d="M2063 1503 c-39 -7 -25 -19 17 -15 22 2 40 8 40 13 0 9 -17 10 -57 2z"/>
<path d="M796 1484 c-9 -8 -22 -12 -28 -8 -7 4 -10 4 -6 -1 4 -4 2 -15 -5 -24
-6 -8 2 -5 20 7 31 22 50 42 39 42 -2 0 -12 -7 -20 -16z"/>
<path d="M420 1450 c0 -25 4 -39 10 -35 6 3 10 19 10 35 0 16 -4 32 -10 35 -6
4 -10 -10 -10 -35z"/>
<path d="M1440 1476 c7 -7 14 -6 21 1 9 9 7 12 -9 10 -14 -1 -18 -5 -12 -11z"/>
<path d="M1510 1480 c0 -5 5 -10 10 -10 6 0 10 5 10 10 0 6 -4 10 -10 10 -5 0
-10 -4 -10 -10z"/>
<path d="M1580 1470 c-9 -6 -10 -10 -3 -10 6 0 15 5 18 10 8 12 4 12 -15 0z"/>
<path d="M465 1440 c10 -50 39 -68 102 -68 30 0 56 5 59 10 4 6 -16 9 -47 8
-70 -2 -76 -1 -62 8 9 6 6 11 -8 21 -16 9 -19 9 -14 0 5 -8 4 -10 -3 -5 -21
13 -13 26 16 27 27 2 27 2 2 6 -14 3 -31 10 -39 16 -11 10 -12 6 -6 -23z"/>
<path d="M2790 1456 c0 -8 5 -18 10 -21 6 -3 10 3 10 14 0 12 -4 21 -10 21 -5
0 -10 -6 -10 -14z"/>
<path d="M2535 1440 c-3 -5 -2 -10 4 -10 5 0 13 5 16 10 3 6 2 10 -4 10 -5 0
-13 -4 -16 -10z"/>
<path d="M1291 1413 c1 -16 5 -41 9 -58 7 -24 8 -18 7 28 0 31 -4 57 -9 57 -4
0 -7 -12 -7 -27z"/>
<path d="M1853 1385 c-38 -35 -63 -50 -66 -43 -2 7 -8 1 -12 -14 -4 -16 -10
-28 -14 -28 -4 0 -14 -12 -22 -27 -7 -16 -31 -54 -52 -86 l-39 -58 40 20 c22
11 42 28 46 37 5 14 4 15 -9 4 -9 -7 -18 -10 -21 -7 -6 6 94 62 111 62 6 0 23
13 38 30 28 29 28 30 7 33 -29 5 -19 28 11 24 19 -2 21 0 9 8 -14 9 -6 15 15
10 6 -1 27 -4 48 -7 21 -2 49 -8 62 -13 17 -6 25 -5 29 5 3 8 0 17 -6 21 -7 4
-8 3 -4 -4 4 -7 1 -12 -9 -12 -9 0 -14 4 -11 8 2 4 -11 6 -31 4 -25 -3 -34 -1
-29 7 4 6 12 11 17 11 16 0 101 61 95 68 -3 3 -14 -2 -24 -11 -10 -10 -25 -17
-33 -17 -8 0 -30 -11 -49 -24 -22 -14 -47 -23 -63 -21 -22 3 -32 -4 -52 -33
-13 -20 -22 -38 -18 -41 3 -3 8 -1 10 6 2 7 11 9 19 6 20 -7 9 -20 -39 -43
-50 -24 -81 -27 -51 -5 10 8 15 15 10 15 -5 0 1 9 14 20 15 13 18 20 9 20 -9
0 -7 5 6 12 11 6 32 25 47 41 17 17 32 26 40 21 7 -4 10 -3 5 1 -8 9 20 45 35
45 5 0 2 -10 -6 -22 -24 -34 -19 -41 13 -17 30 22 32 49 2 49 -9 0 -44 -25
-78 -55z"/>
<path d="M453 1399 c4 -13 1 -16 -14 -12 -10 3 -19 0 -19 -6 0 -6 14 -11 31
-11 28 0 30 2 18 18 -21 27 -23 28 -16 11z"/>
<path d="M2917 1404 c-4 -4 -7 -14 -7 -21 0 -11 10 -12 43 -8 63 10 66 19 7
30 -19 3 -39 3 -43 -1z"/>
<path d="M2075 1380 c-5 -8 -10 -17 -10 -20 -1 -22 -43 -52 -110 -78 -80 -31
-85 -41 -10 -21 44 11 105 40 105 49 0 4 9 16 21 28 11 13 19 30 17 40 -3 15
-5 15 -13 2z"/>
<path d="M2105 1380 c-3 -6 1 -7 9 -4 18 7 21 14 7 14 -6 0 -13 -4 -16 -10z"/>
<path d="M2137 1359 c-9 -5 -21 -8 -25 -5 -4 2 -8 -4 -9 -15 -2 -18 0 -18 28
3 37 28 41 37 6 17z"/>
<path d="M905 1344 c-22 -8 -44 -19 -49 -24 -6 -6 -18 -10 -28 -10 -10 0 -18
-7 -18 -15 0 -8 -5 -15 -11 -15 -5 0 -7 -4 -4 -10 3 -5 1 -10 -4 -10 -6 0 -11
-4 -11 -9 0 -5 -8 -26 -17 -47 -9 -22 -16 -43 -14 -48 1 -5 -4 -13 -11 -17
-10 -7 -10 -9 1 -9 11 0 10 -5 -4 -20 -10 -11 -13 -20 -7 -20 13 0 31 29 35
59 2 11 6 24 10 27 4 4 7 17 7 28 0 37 46 93 87 107 39 12 106 49 88 48 -5 0
-28 -7 -50 -15z"/>
<path d="M2933 1347 c-27 -14 -28 -20 -8 -37 8 -7 15 -19 15 -26 0 -8 7 -14
15 -14 12 0 13 4 3 25 -13 29 -1 49 13 22 15 -26 31 -20 27 11 -3 30 -28 38
-65 19z"/>
<path d="M970 1340 c-13 -9 -13 -10 0 -10 11 -1 10 -4 -5 -16 -11 -8 -19 -21
-17 -28 1 -7 -4 -19 -12 -25 -8 -7 -12 -20 -9 -28 4 -11 2 -14 -5 -9 -7 4 -12
2 -12 -4 0 -6 -4 -8 -10 -5 -5 3 -10 1 -10 -5 0 -7 8 -9 23 -4 12 3 22 7 23 8
1 0 14 28 30 61 15 33 30 63 32 68 5 10 -10 9 -28 -3z"/>
<path d="M2380 1333 c-34 -24 -45 -35 -59 -62 -11 -19 -15 -21 -23 -10 -8 11
-8 10 -4 -5 4 -11 -9 -45 -34 -91 -41 -73 -47 -91 -31 -81 5 3 8 -5 7 -19 -1
-32 -4 -31 -17 2 -7 20 -6 46 6 100 9 41 15 79 12 86 -2 6 3 17 11 23 10 7 11
13 5 17 -6 4 -19 -5 -28 -19 -9 -15 -12 -23 -6 -20 13 9 13 9 0 -34 -21 -70
-27 -134 -15 -150 8 -11 5 -11 -16 2 -23 15 -27 16 -32 2 -8 -21 -7 -31 2 -18
5 8 36 -4 97 -36 l90 -48 2 -48 c1 -28 -3 -52 -10 -57 -8 -6 -6 -7 6 -3 24 7
21 -3 -6 -28 l-24 -22 -1 50 c0 28 -1 62 -2 76 -2 24 -2 24 -16 5 -16 -22 -19
-39 -4 -30 6 4 10 -14 10 -48 l0 -54 -43 21 c-24 12 -42 26 -40 32 3 7 -1 15
-8 20 -9 5 -10 2 -6 -10 5 -12 3 -16 -5 -14 -7 3 -15 15 -19 29 -6 22 -7 22
-8 2 -1 -16 -6 -20 -21 -16 -25 7 -26 42 -4 89 17 36 43 61 31 30 -4 -10 -3
-15 3 -11 6 3 10 18 10 33 l-1 27 -29 -35 c-16 -19 -30 -43 -30 -52 0 -9 -5
-20 -11 -24 -6 -3 -9 -15 -6 -25 4 -16 2 -17 -15 -8 -11 6 -22 8 -25 6 -3 -3
8 -12 23 -20 l27 -14 -29 -14 c-28 -14 -44 -38 -59 -89 -12 -39 8 -14 25 33
10 27 22 42 33 42 10 0 21 6 25 13 13 19 101 -13 97 -36 -1 -9 0 -11 2 -4 6
15 4 15 41 -4 20 -9 32 -23 32 -35 0 -11 5 -17 10 -14 6 4 7 11 4 17 -5 8 1 9
17 4 13 -4 30 -8 36 -8 9 -1 12 -30 10 -112 -1 -60 -1 -102 1 -93 4 18 17 23
26 8 3 -5 0 -14 -8 -20 -7 -6 -17 -26 -20 -44 -5 -22 -9 -28 -15 -19 -7 11 -9
10 -14 -3 -4 -9 -3 -13 3 -10 6 3 10 0 10 -7 0 -9 3 -9 10 2 11 18 11 19 13
-45 1 -27 -3 -67 -10 -89 -18 -54 -15 -78 3 -36 18 40 22 56 23 88 1 15 7 22
21 22 26 0 25 -8 -2 -37 -12 -13 -16 -23 -10 -23 6 0 30 25 52 55 22 30 48 55
58 55 13 -1 10 -7 -13 -25 -16 -14 -25 -25 -20 -25 18 0 86 61 79 71 -4 6 -11
6 -19 -1 -8 -7 -19 -9 -25 -5 -7 4 -27 -8 -46 -26 -19 -19 -38 -32 -42 -31
-34 18 -41 24 -36 37 4 9 1 21 -4 28 -8 10 -5 22 11 47 40 61 47 75 47 97 0
12 5 25 10 28 6 4 8 10 5 15 -6 10 67 40 80 32 5 -3 4 -7 -3 -10 -15 -5 -16
-32 -2 -32 6 0 15 11 20 25 5 14 12 25 15 25 4 0 3 -5 -1 -11 -4 -8 -1 -8 12
-1 16 8 118 57 148 71 5 2 7 -3 3 -12 -3 -8 -1 -14 6 -13 23 3 38 18 33 32 -7
17 3 23 50 29 38 5 93 48 75 59 -9 6 -24 -9 -35 -34 -3 -8 -4 3 -1 25 l5 40
-21 -38 c-24 -45 -34 -44 -18 2 6 18 9 35 5 38 -3 4 -6 -1 -6 -9 0 -21 -58
-82 -97 -102 -39 -19 -42 -12 -10 22 l22 25 -30 -16 c-16 -8 -73 -36 -125 -62
-52 -26 -99 -51 -105 -56 -19 -18 -22 -8 -13 49 5 31 20 76 34 99 29 50 32 78
4 43 l-20 -25 4 28 c3 16 12 48 21 72 17 44 17 94 0 85 -5 -3 -10 -18 -10 -35
-1 -16 -8 -64 -17 -105 -9 -41 -27 -131 -39 -200 -12 -69 -24 -128 -26 -133
-2 -4 -11 -1 -19 7 -16 17 -19 72 -4 81 6 3 10 12 10 18 0 7 -4 6 -10 -3 -8
-11 -10 -6 -9 20 1 19 -1 58 -5 87 -6 45 -5 52 11 56 16 4 16 5 1 6 -11 1 -20
12 -24 29 -3 15 -7 32 -9 39 -2 6 1 14 8 17 9 3 9 5 0 5 -18 1 -16 21 2 21 8
0 15 5 15 11 0 6 -7 9 -15 5 -10 -3 -15 1 -15 14 0 10 8 21 18 23 16 4 15 5
-1 6 -16 1 -17 6 -12 34 15 67 60 161 95 198 20 22 31 39 23 39 -7 0 -13 -6
-13 -12 0 -9 -4 -8 -10 2 -7 10 -10 11 -10 2 0 -12 -47 -91 -61 -102 -7 -6
-37 -134 -41 -175 l-3 -30 -22 23 c-28 27 -30 70 -6 172 15 66 24 81 65 123
48 48 51 60 8 30z m-101 -244 c1 -29 4 -57 8 -63 4 -6 -1 -5 -10 3 -9 7 -17
10 -17 5 0 -5 -4 -3 -9 5 -12 18 -6 68 10 87 6 8 12 14 14 14 1 0 3 -23 4 -51z
m77 -297 c-4 -3 -11 -1 -18 6 -8 8 -8 15 3 28 13 16 14 16 17 -5 2 -13 1 -25
-2 -29z m318 -10 c-9 -9 -131 -62 -141 -62 -3 0 0 7 7 15 7 8 16 15 21 15 4 0
20 5 36 12 15 6 34 12 42 14 7 1 18 7 24 13 6 6 13 8 16 6 2 -3 0 -9 -5 -13z
m86 -1 c0 -6 -4 -12 -8 -15 -5 -3 -9 1 -9 9 0 8 4 15 9 15 4 0 8 -4 8 -9z"/>
<path d="M2265 1320 c-3 -5 -2 -10 4 -10 5 0 13 5 16 10 3 6 2 10 -4 10 -5 0
-13 -4 -16 -10z"/>
<path d="M2790 1319 c0 -5 5 -7 10 -4 6 3 10 8 10 11 0 2 -4 4 -10 4 -5 0 -10
-5 -10 -11z"/>
<path d="M2505 1310 c-3 -5 -1 -10 4 -10 6 0 11 5 11 10 0 6 -2 10 -4 10 -3 0
-8 -4 -11 -10z"/>
<path d="M2535 1310 c-3 -5 -1 -10 4 -10 6 0 11 5 11 10 0 6 -2 10 -4 10 -3 0
-8 -4 -11 -10z"/>
<path d="M495 1302 c-55 -1 -104 -7 -109 -12 -7 -7 4 -10 29 -11 70 -1 229 2
258 6 23 3 26 1 16 -11 -18 -22 8 -18 66 11 l50 24 -105 -2 c-58 -1 -150 -3
-205 -5z"/>
<path d="M1105 1300 c-3 -6 1 -7 9 -4 18 7 21 14 7 14 -6 0 -13 -4 -16 -10z"/>
<path d="M2099 1305 c-1 -3 -2 -8 -3 -12 -1 -5 -5 -14 -9 -20 -6 -10 -2 -11
17 -3 17 6 27 6 32 -1 3 -6 4 -11 3 -12 -2 -1 -22 -12 -44 -25 -99 -57 -142
-71 -260 -87 -205 -28 -303 -61 -351 -118 -74 -88 -155 -332 -201 -609 -16
-100 -19 -108 -40 -108 -12 0 -25 -5 -28 -10 -4 -7 3 -8 21 -4 26 7 27 6 21
-27 -3 -19 -11 -69 -18 -111 -6 -43 -17 -85 -23 -93 -6 -8 -30 -17 -53 -21
-38 -6 -43 -4 -43 13 0 11 5 34 11 51 6 17 9 41 7 54 -3 18 -7 13 -17 -22 -7
-25 -14 -61 -16 -82 -2 -20 -6 -41 -10 -47 -3 -6 -1 -11 4 -11 6 0 11 4 11 9
0 11 16 16 74 26 36 6 38 5 33 -14 -4 -17 0 -21 18 -21 22 0 24 4 19 36 -2 20
-7 40 -10 45 -3 5 1 6 8 4 14 -6 15 -2 20 74 1 17 5 28 9 25 4 -2 10 0 14 6 3
5 1 10 -5 10 -6 0 -9 4 -5 9 3 5 1 12 -4 15 -5 4 -12 -2 -15 -11 -4 -14 -4
-14 -3 2 1 11 10 20 19 20 10 0 23 6 30 13 11 11 10 12 -4 7 -11 -4 -18 -2
-18 4 0 6 6 11 14 11 7 0 20 7 27 17 13 15 12 15 -9 4 -13 -7 -28 -10 -35 -7
-7 2 -4 5 7 5 11 1 16 6 13 15 -3 7 0 19 6 26 9 10 9 11 -1 5 -11 -6 -12 -3
-3 14 7 12 9 26 6 31 -3 5 -1 11 3 14 5 3 7 18 4 32 -3 17 -1 25 5 21 6 -4 17
1 24 11 13 15 12 16 -4 3 -16 -13 -17 -11 -12 20 7 51 14 89 24 134 6 22 12
52 16 68 3 15 9 27 14 27 5 0 34 26 64 57 l56 58 78 -17 c76 -16 78 -16 96 4
9 11 17 25 17 31 0 6 -7 1 -16 -11 -19 -28 -31 -28 -37 1 l-4 22 -2 -23 c-1
-16 -5 -21 -13 -15 -13 7 -18 8 -70 11 -16 1 -28 7 -28 14 0 6 3 9 6 5 3 -3
17 7 30 23 28 32 83 54 120 47 13 -2 27 0 30 4 7 12 98 11 149 -1 22 -5 56
-12 75 -15 19 -3 46 -14 60 -23 28 -19 67 -25 75 -12 7 12 -28 22 -49 14 -11
-4 -16 -1 -16 10 0 10 -11 19 -30 23 -17 3 -33 10 -36 15 -3 5 -13 3 -22 -4
-13 -11 -15 -11 -10 3 4 9 1 16 -8 16 -7 0 -10 -5 -7 -10 4 -6 1 -7 -6 -3 -7
5 -10 15 -6 24 4 11 -3 8 -19 -7 -25 -24 -37 -18 -16 7 7 9 7 9 -2 2 -7 -5
-25 -10 -40 -10 -28 0 -28 0 -12 25 18 28 40 34 30 9 -6 -14 -4 -15 9 -4 15
12 15 14 0 23 -9 5 -19 6 -22 3 -3 -3 -14 -1 -24 5 -15 7 -19 6 -19 -5 0 -10
6 -13 16 -9 15 5 15 3 -1 -20 -11 -17 -26 -27 -41 -27 l-25 0 22 30 c13 16 20
32 18 35 -3 2 -20 -17 -39 -43 -18 -26 -35 -42 -37 -35 -3 8 -13 8 -39 -3 -35
-15 -46 -6 -19 16 8 7 15 18 15 24 1 17 38 62 46 54 4 -4 3 -13 -2 -21 -5 -7
-2 -6 6 3 9 9 21 15 28 12 6 -2 12 1 12 7 0 6 -11 11 -25 11 -44 0 -31 34 17
44 7 2 24 8 38 13 31 13 35 10 20 -17 -9 -16 -14 -19 -20 -11 -5 9 -9 6 -13
-8 -8 -32 15 -25 39 12 20 30 28 34 99 45 43 7 81 10 84 6 8 -7 -37 -44 -54
-44 -7 0 -16 6 -18 13 -3 6 -6 2 -6 -10 -1 -15 4 -20 17 -18 9 2 22 4 27 4 16
2 79 61 65 61 -7 0 -10 3 -6 8 4 4 17 7 29 7 11 0 22 6 25 14 3 10 -1 12 -17
8 -11 -3 -21 -4 -21 -2 0 7 123 75 136 75 8 0 14 5 14 11 0 16 -26 39 -45 39
-9 0 -13 5 -10 10 3 6 4 10 1 10 -3 0 -7 -2 -7 -5z m-146 -162 c-7 -2 -19 -2
-25 0 -7 3 -2 5 12 5 14 0 19 -2 13 -5z m-55 -10 c-10 -2 -26 -2 -35 0 -10 3
-2 5 17 5 19 0 27 -2 18 -5z m-142 -22 c-3 -4 -24 -11 -46 -15 -31 -5 -40 -11
-40 -25 0 -11 -6 -26 -12 -33 -7 -7 -14 -20 -16 -28 -4 -18 -42 -71 -65 -90
-10 -8 -19 -24 -21 -35 -2 -11 -7 -20 -12 -20 -5 0 -15 -4 -22 -9 -8 -5 -18
-4 -25 3 -8 8 0 24 29 58 22 26 47 49 55 51 8 3 3 -8 -12 -24 -45 -51 -54 -70
-11 -24 23 25 40 50 38 56 -2 5 5 21 15 35 20 26 25 44 10 34 -5 -3 -12 -1
-16 5 -4 6 -17 4 -36 -5 -38 -20 -38 -5 0 17 24 13 31 14 35 3 6 -16 31 -14
48 3 9 9 5 12 -17 13 -20 0 -6 7 40 19 86 22 87 22 81 11z m-146 -80 c0 -5
-34 -44 -75 -86 -41 -43 -72 -82 -69 -86 2 -4 -6 -15 -18 -23 -22 -15 -22 -16
-2 -16 11 0 25 5 32 12 6 6 14 9 17 6 3 -2 -20 -31 -51 -64 -30 -32 -53 -50
-49 -39 4 11 8 27 10 35 14 57 29 88 57 119 18 20 26 30 18 24 -7 -7 -21 -13
-29 -13 -14 1 -14 2 0 13 9 7 19 24 22 39 8 31 52 82 64 75 5 -3 15 -2 23 4
19 11 50 12 50 0z m-283 -493 c-3 -8 -6 -5 -6 6 -1 11 2 17 5 13 3 -3 4 -12 1
-19z m-30 -165 c-3 -10 -5 -4 -5 12 0 17 2 24 5 18 2 -7 2 -21 0 -30z m-10
-55 c-3 -7 -5 -2 -5 12 0 14 2 19 5 13 2 -7 2 -19 0 -25z"/>
<path d="M1547 1009 c-22 -11 -37 -23 -34 -25 5 -5 77 35 77 42 0 6 -1 5 -43
-17z"/>
<path d="M1494 956 c-10 -8 -16 -17 -13 -20 3 -3 14 1 25 8 10 8 16 17 13 20
-3 3 -14 -1 -25 -8z"/>
<path d="M1429 790 c-13 -10 -19 -19 -13 -20 6 0 19 9 29 20 23 26 14 26 -16
0z"/>
<path d="M1113 1265 c0 -8 4 -12 9 -9 5 3 6 10 3 15 -9 13 -12 11 -12 -6z"/>
<path d="M1997 1235 c-21 -25 -35 -45 -32 -45 7 0 55 54 68 76 15 26 1 14 -36
-31z"/>
<path d="M1143 1258 c-13 -16 -13 -48 -1 -48 5 0 6 9 3 20 -5 14 -2 20 9 20 9
0 16 5 16 10 0 14 -16 12 -27 -2z"/>
<path d="M1700 1250 c-27 -18 -138 -49 -184 -51 -25 -2 -43 -6 -40 -11 13 -20
244 43 244 67 0 7 -3 6 -20 -5z"/>
<path d="M2041 1243 c0 -11 3 -13 6 -5 2 6 10 9 15 6 7 -4 8 -2 4 4 -11 18
-26 14 -25 -5z"/>
<path d="M2904 1247 c-8 -21 2 -35 16 -21 5 5 6 15 0 24 -8 12 -10 12 -16 -3z"/>
<path d="M413 1243 c-80 -3 -103 -7 -103 -18 0 -19 335 -9 365 11 21 15 10 15
-262 7z"/>
<path d="M1268 1223 c6 -2 18 -2 25 0 6 3 1 5 -13 5 -14 0 -19 -2 -12 -5z"/>
<path d="M1777 1199 c-45 -37 -46 -44 -8 -44 16 0 27 3 24 8 -2 4 -11 7 -19 7
-8 0 -1 12 18 30 43 39 33 38 -15 -1z"/>
<path d="M1898 1223 c6 -2 18 -2 25 0 6 3 1 5 -13 5 -14 0 -19 -2 -12 -5z"/>
<path d="M1940 1210 c-9 -6 -10 -10 -3 -10 6 0 15 5 18 10 8 12 4 12 -15 0z"/>
<path d="M2625 1200 c-4 -6 -11 -8 -16 -5 -5 4 -9 0 -9 -7 0 -9 -3 -9 -10 2
-7 11 -10 11 -10 2 0 -7 -4 -11 -9 -8 -5 3 -12 -1 -15 -10 -3 -9 -12 -14 -19
-11 -8 3 -19 -4 -25 -14 -17 -27 -36 -25 -22 2 7 11 9 23 7 26 -3 3 -15 -14
-27 -37 -12 -23 -27 -40 -33 -38 -7 2 -28 -11 -47 -29 -32 -30 -33 -33 -13
-33 12 0 23 3 25 8 14 31 210 142 252 142 17 0 18 2 6 10 -19 12 -27 12 -35 0z"/>
<path d="M910 1185 c-7 -8 -12 -26 -12 -39 0 -15 -7 -26 -18 -29 -13 -3 -16 1
-14 19 1 13 -2 22 -6 19 -5 -3 -7 -12 -4 -19 3 -7 -2 -21 -12 -30 -23 -24 -14
-27 25 -8 25 12 38 28 48 56 15 44 12 54 -7 31z"/>
<path d="M1039 1181 c-13 -11 -19 -20 -13 -21 15 0 50 27 43 34 -3 4 -17 -2
-30 -13z"/>
<path d="M1385 1189 c-4 -5 5 -9 19 -9 14 0 26 -5 26 -12 0 -6 2 -9 5 -6 3 3
3 12 0 19 -6 17 -42 22 -50 8z"/>
<path d="M324 1169 c10 -46 36 -100 46 -94 6 4 4 12 -5 21 -8 9 -15 18 -16 22
-2 24 -8 42 -19 59 -10 16 -11 15 -6 -8z"/>
<path d="M1825 1180 c27 -12 43 -12 25 0 -8 5 -22 9 -30 9 -10 0 -8 -3 5 -9z"/>
<path d="M2910 1176 c0 -8 5 -18 10 -21 6 -3 10 3 10 14 0 12 -4 21 -10 21 -5
0 -10 -6 -10 -14z"/>
<path d="M1599 1159 l-24 -20 30 17 c39 24 40 24 28 24 -6 0 -21 -9 -34 -21z"/>
<path d="M2166 1144 c-18 -38 -18 -48 0 -36 10 6 28 72 21 72 -2 0 -11 -16
-21 -36z"/>
<path d="M807 1153 c-4 -3 -7 -15 -7 -25 0 -25 -23 -48 -49 -48 -11 0 -32 -11
-47 -25 -15 -14 -38 -28 -51 -31 -13 -4 -23 -10 -23 -15 0 -13 1 -12 58 19 29
16 49 32 45 35 -4 4 2 7 13 6 40 -4 50 2 65 46 15 41 13 56 -4 38z"/>
<path d="M1365 1150 c-3 -5 -1 -10 4 -10 6 0 11 5 11 10 0 6 -2 10 -4 10 -3 0
-8 -4 -11 -10z"/>
<path d="M1430 1140 c0 -5 -12 -10 -27 -10 -20 0 -24 -3 -16 -11 8 -8 17 -8
32 0 19 10 29 31 16 31 -3 0 -5 -4 -5 -10z"/>
<path d="M2620 1141 c0 -6 4 -13 10 -16 6 -3 7 1 4 9 -7 18 -14 21 -14 7z"/>
<path d="M2781 1124 c0 -11 3 -14 6 -6 3 7 2 16 -1 19 -3 4 -6 -2 -5 -13z"/>
<path d="M1235 1095 c0 -19 3 -35 6 -35 4 0 9 16 11 35 2 20 0 35 -7 35 -5 0
-10 -16 -10 -35z"/>
<path d="M2580 1122 c0 -7 -6 -12 -13 -12 -8 0 -19 -11 -25 -25 -16 -35 -15
-46 3 -39 8 4 12 10 9 16 -3 5 4 20 17 34 12 13 19 27 16 31 -4 3 -7 1 -7 -5z"/>
<path d="M2950 1122 c0 -4 6 -16 14 -27 7 -11 18 -33 25 -50 10 -28 11 -27 6
15 -6 44 -19 70 -36 70 -5 0 -9 -3 -9 -8z"/>
<path d="M605 1060 c1 -30 -2 -66 -7 -80 -9 -24 -8 -24 8 -8 18 18 31 84 15
73 -6 -3 -12 12 -14 32 -2 21 -3 13 -2 -17z"/>
<path d="M1996 1080 c-14 -22 -21 -39 -15 -38 6 2 13 -2 16 -8 2 -7 -7 -11
-26 -9 -17 1 -28 -1 -25 -6 3 -5 10 -7 15 -4 5 4 9 -1 9 -11 0 -13 5 -11 25
10 47 50 65 106 36 106 -5 0 -20 -18 -35 -40z m27 -5 c-9 -19 -20 -32 -25 -29
-7 5 27 64 38 64 2 0 -4 -16 -13 -35z"/>
<path d="M2741 1108 c-1 -10 -5 -18 -11 -18 -5 0 -10 -5 -10 -11 0 -16 -60
-69 -82 -73 -11 -1 -24 -9 -28 -17 -8 -12 -11 -12 -22 0 -8 9 -9 11 -1 7 6 -3
14 -3 17 2 14 24 -28 4 -66 -31 l-43 -39 38 21 c21 12 43 19 48 15 6 -3 20 1
32 9 12 8 41 18 65 22 38 6 60 25 30 25 -7 0 -5 5 5 11 9 5 17 18 17 27 0 10
5 23 11 29 6 6 9 17 6 25 -4 9 -6 7 -6 -4z"/>
<path d="M515 1100 c-16 -7 -17 -9 -3 -9 9 -1 20 4 23 9 7 11 7 11 -20 0z"/>
<path d="M552 1066 c-22 -43 -28 -89 -16 -120 10 -25 19 -19 21 15 1 17 7 37
13 44 8 10 7 16 -7 24 -13 8 -15 13 -6 18 11 8 30 63 21 63 -3 0 -14 -20 -26
-44z"/>
<path d="M426 1091 c-4 -5 3 -7 14 -4 23 6 26 13 6 13 -8 0 -17 -4 -20 -9z"/>
<path d="M1806 1075 c-9 -14 -12 -25 -6 -25 5 0 10 6 10 13 0 8 4 7 10 -3 7
-11 10 -11 10 -2 0 7 4 11 9 8 14 -9 41 4 41 20 0 8 -5 14 -11 14 -5 0 -8 -4
-5 -9 3 -5 -6 -11 -20 -14 -18 -3 -24 -1 -20 9 8 22 0 16 -18 -11z"/>
<path d="M2648 1066 c-14 -14 -29 -22 -32 -19 -3 4 -6 1 -6 -5 0 -7 0 -15 0
-19 -1 -14 30 -11 42 5 11 13 11 15 -2 8 -13 -7 -13 -6 0 6 25 21 43 48 34 48
-5 0 -21 -11 -36 -24z"/>
<path d="M949 1058 c-13 -24 -22 -74 -11 -64 8 9 32 80 27 84 -2 2 -9 -7 -16
-20z"/>
<path d="M1185 1070 c-4 -6 -4 -27 -1 -45 5 -26 11 -33 24 -29 16 5 16 5 0 -8
-14 -12 -16 -36 -16 -169 1 -145 -6 -277 -18 -361 -5 -29 -2 -38 9 -38 10 0
15 11 15 34 0 19 3 44 7 56 5 16 4 20 -5 15 -9 -6 -9 -3 -2 11 5 11 10 31 10
46 -1 31 32 168 39 168 3 0 3 -15 0 -34 -8 -50 1 -75 24 -69 10 3 24 13 31 22
12 14 11 15 -4 2 -31 -24 -45 0 -41 71 4 73 -3 101 -17 78 -8 -13 -10 -12 -10
2 0 10 -3 17 -7 15 -8 -2 -13 6 -13 18 0 3 9 1 19 -4 18 -10 18 -8 9 27 -18
67 -20 99 -9 121 10 18 9 21 -8 21 -25 0 -36 17 -21 35 7 8 7 15 1 19 -5 4
-13 1 -16 -4z m46 -295 c5 4 9 1 9 -4 0 -6 -4 -11 -10 -11 -5 0 -9 -3 -9 -7 4
-22 -2 -63 -8 -63 -5 0 -6 26 -4 57 3 32 6 50 8 40 3 -9 9 -15 14 -12z"/>
<path d="M1036 1061 c-4 -7 -5 -15 -2 -18 9 -9 19 4 14 18 -4 11 -6 11 -12 0z"/>
<path d="M2076 1063 c-4 -5 -13 -8 -19 -8 -7 0 -13 -13 -15 -30 -2 -22 0 -26
7 -15 5 8 7 18 4 24 -3 5 -1 6 5 2 6 -3 16 3 22 14 11 20 9 26 -4 13z"/>
<path d="M2120 1055 c-7 -9 -8 -15 -2 -15 5 0 12 7 16 15 3 8 4 15 2 15 -2 0
-9 -7 -16 -15z"/>
<path d="M2812 1044 c2 -15 13 -19 46 -21 23 0 51 -2 62 -2 31 -1 24 -31 -10
-44 -33 -12 -36 -21 -18 -41 10 -10 18 -7 40 18 29 31 46 72 35 83 -3 3 -32 7
-64 8 -32 2 -66 6 -77 10 -14 6 -17 4 -14 -11z"/>
<path d="M2566 1034 c-6 -15 -4 -15 11 -3 10 7 20 15 22 16 2 2 -3 3 -11 3 -9
0 -19 -7 -22 -16z"/>
<path d="M2763 1037 c-18 -6 -33 -15 -33 -19 0 -10 1 -10 39 3 17 6 31 15 31
20 0 5 -1 8 -2 8 -2 -1 -18 -7 -35 -12z"/>
<path d="M720 1020 c-8 -5 -12 -12 -9 -15 4 -3 12 1 19 10 14 17 11 19 -10 5z"/>
<path d="M1915 1019 c-4 -6 -5 -12 -2 -15 2 -3 7 2 10 11 7 17 1 20 -8 4z"/>
<path d="M2095 1021 c3 -5 1 -12 -5 -16 -5 -3 -10 0 -11 7 -1 23 -27 -56 -27
-82 0 -20 2 -18 10 10 5 19 18 44 29 56 21 23 24 34 8 34 -5 0 -8 -4 -4 -9z"/>
<path d="M2119 1004 c-22 -25 -22 -26 -3 -16 12 6 24 18 28 27 8 21 3 19 -25
-11z"/>
<path d="M2201 1008 c-1 -16 4 -28 9 -28 12 0 12 8 0 35 -8 18 -9 17 -9 -7z"/>
<path d="M2433 1023 c-12 -2 -24 -11 -27 -19 -5 -12 -1 -12 24 1 17 9 30 18
30 20 0 3 -1 4 -2 4 -2 -1 -13 -4 -25 -6z"/>
<path d="M1881 999 c-1 -16 47 -45 57 -35 2 3 -7 10 -21 15 -14 5 -27 16 -30
23 -4 9 -6 8 -6 -3z"/>
<path d="M2242 985 c0 -16 2 -22 5 -12 2 9 2 23 0 30 -3 6 -5 -1 -5 -18z"/>
<path d="M745 974 c0 -13 3 -24 8 -24 4 0 7 9 7 19 0 11 -3 22 -7 24 -5 3 -8
-6 -8 -19z"/>
<path d="M1120 979 c0 -11 4 -18 10 -14 5 3 7 12 3 20 -7 21 -13 19 -13 -6z"/>
<path d="M1395 970 c-4 -17 -5 -34 -2 -36 2 -3 7 10 11 27 8 42 0 50 -9 9z"/>
<path d="M682 960 c-8 -16 -12 -38 -10 -49 2 -14 9 -4 20 29 18 54 11 68 -10
20z"/>
<path d="M1020 958 c-12 -22 -12 -22 6 -6 10 10 15 20 12 24 -4 3 -12 -5 -18
-18z"/>
<path d="M1660 976 c0 -2 7 -6 15 -10 8 -3 15 -1 15 4 0 6 -7 10 -15 10 -8 0
-15 -2 -15 -4z"/>
<path d="M1962 960 c0 -14 2 -19 5 -12 2 6 2 18 0 25 -3 6 -5 1 -5 -13z"/>
<path d="M2273 963 c-3 -10 -8 -22 -10 -28 -3 -5 3 -1 11 9 16 20 21 36 11 36
-3 0 -8 -8 -12 -17z"/>
<path d="M2677 974 c-4 -4 -7 -14 -7 -23 0 -11 3 -12 11 -4 6 6 10 16 7 23 -2
6 -7 8 -11 4z"/>
<path d="M2726 944 c-4 -20 -5 -38 -2 -41 2 -3 8 11 12 31 3 21 4 39 1 42 -2
3 -8 -11 -11 -32z"/>
<path d="M491 904 c-27 -72 -28 -120 -1 -134 11 -6 26 -23 34 -38 12 -22 12
-32 1 -51 l-12 -24 -7 27 c-4 15 -11 24 -16 21 -6 -3 -10 -1 -10 6 0 7 -3 10
-6 7 -3 -4 2 -18 11 -32 9 -14 14 -29 11 -34 -3 -5 1 -9 9 -9 8 0 17 8 20 18
4 11 12 16 23 13 10 -4 13 -2 7 3 -5 4 -12 24 -13 43 -2 19 -8 37 -13 38 -5 2
-19 21 -29 43 -18 35 -19 42 -6 67 14 29 31 92 23 92 -2 0 -14 -25 -26 -56z"/>
<path d="M2552 940 c-6 -11 -12 -22 -12 -25 0 -11 20 6 30 26 14 25 -2 25 -18
-1z"/>
<path d="M1121 936 c-9 -10 -8 -16 4 -26 9 -7 18 -10 22 -6 3 3 1 6 -6 6 -8 0
-10 7 -6 20 7 23 2 26 -14 6z"/>
<path d="M2980 910 c-8 -25 -15 -48 -15 -52 0 -3 -3 -10 -7 -14 -5 -4 -8 -19
-8 -33 1 -23 2 -24 11 -8 6 11 12 24 13 30 2 7 8 25 15 41 7 17 11 41 9 55 -3
22 -5 19 -18 -19z"/>
<path d="M1318 933 c6 -2 18 -2 25 0 6 3 1 5 -13 5 -14 0 -19 -2 -12 -5z"/>
<path d="M2000 936 c0 -2 7 -7 16 -10 8 -3 12 -2 9 4 -6 10 -25 14 -25 6z"/>
<path d="M2141 914 c0 -11 3 -14 6 -6 3 7 2 16 -1 19 -3 4 -6 -2 -5 -13z"/>
<path d="M1005 899 c-4 -6 -14 -8 -24 -4 -11 4 -13 3 -5 -5 12 -12 44 -4 44
11 0 12 -7 11 -15 -2z"/>
<path d="M2880 906 c0 -2 7 -7 16 -10 8 -3 12 -2 9 4 -6 10 -25 14 -25 6z"/>
<path d="M1113 885 c0 -7 9 -17 19 -24 14 -9 18 -8 18 2 0 6 -8 17 -18 24 -14
8 -19 8 -19 -2z"/>
<path d="M1855 868 l-16 -33 20 25 c20 24 26 40 16 40 -2 0 -12 -15 -20 -32z"/>
<path d="M749 870 c-13 -10 -19 -19 -13 -20 6 0 19 9 29 20 23 26 14 26 -16 0z"/>
<path d="M2601 879 c-1 -8 -21 -30 -46 -48 -65 -47 -55 -47 20 0 61 39 83 58
51 46 -8 -3 -17 -1 -20 6 -2 7 -5 6 -5 -4z"/>
<path d="M792 848 c-24 -39 -40 -104 -23 -94 6 4 11 15 11 24 0 10 9 35 20 57
25 48 19 58 -8 13z"/>
<path d="M2901 853 c-9 -10 -10 -18 -3 -25 7 -7 12 -3 17 12 9 27 4 32 -14 13z"/>
<path d="M2652 847 c-6 -7 -33 -24 -61 -37 -28 -14 -51 -28 -51 -32 0 -9 19
-1 76 29 41 22 74 53 56 53 -5 0 -14 -6 -20 -13z"/>
<path d="M711 834 c0 -11 3 -14 6 -6 3 7 2 16 -1 19 -3 4 -6 -2 -5 -13z"/>
<path d="M1113 836 c6 -14 -10 -36 -26 -36 -5 0 -3 8 4 18 13 16 13 16 -7 0
-28 -24 -37 -22 -24 5 11 21 11 21 -8 -2 -12 -15 -32 -25 -58 -28 -21 -2 -43
-8 -48 -14 -13 -12 -46 -12 -46 2 0 6 -7 3 -16 -6 -14 -13 -19 -14 -25 -3 -7
10 -9 10 -9 0 0 -10 -24 -25 -60 -37 -3 -1 -18 -7 -33 -13 -16 -7 -35 -12 -43
-12 -8 0 -14 -5 -14 -11 0 -5 -5 -7 -11 -4 -6 4 -16 -1 -23 -11 -13 -16 -15
-16 -30 12 -15 26 -16 17 -1 -19 5 -11 -44 -41 -61 -37 -4 1 -11 -6 -16 -15
-8 -13 -12 -14 -24 -4 -13 11 -14 8 -10 -17 4 -16 3 -23 0 -16 -3 6 -11 12
-18 12 -7 0 -21 19 -31 43 -17 39 -19 40 -22 16 -6 -42 13 -77 57 -99 22 -11
38 -25 35 -30 -3 -5 0 -12 6 -16 12 -7 9 22 -5 56 -9 23 2 32 99 81 148 76
350 139 443 139 17 0 33 3 33 8 6 34 5 52 -3 52 -6 0 -8 -6 -5 -14z"/>
<path d="M1282 831 c9 -14 14 -16 24 -7 14 13 13 15 -14 21 -18 3 -20 1 -10
-14z"/>
<path d="M2001 834 c0 -11 3 -14 6 -6 3 7 2 16 -1 19 -3 4 -6 -2 -5 -13z"/>
<path d="M2140 840 c0 -6 4 -9 9 -5 5 3 16 -1 24 -9 8 -8 17 -12 21 -9 10 10
7 20 -6 20 -7 0 -21 4 -30 8 -11 4 -18 3 -18 -5z"/>
<path d="M2016 815 c-22 -34 -20 -43 4 -15 18 21 26 40 16 40 -2 0 -11 -11
-20 -25z"/>
<path d="M2400 825 c7 -8 16 -15 21 -15 5 0 6 7 3 15 -4 8 -13 15 -21 15 -13
0 -13 -3 -3 -15z"/>
<path d="M1841 797 c-10 -30 -15 -33 -41 -29 -16 2 -28 8 -25 12 3 5 0 12 -6
16 -8 4 -9 3 -5 -4 11 -18 -20 -15 -38 4 -9 8 -16 11 -16 5 0 -6 -7 -8 -15 -5
-8 4 -15 2 -15 -3 0 -5 33 -17 73 -27 39 -10 122 -38 184 -63 l111 -45 -15
-44 c-8 -25 -13 -47 -10 -50 2 -3 11 16 18 41 9 31 19 45 31 45 19 0 127 -38
143 -50 16 -13 40 -16 43 -5 2 10 -1 11 -33 14 -8 0 -15 6 -15 12 0 5 4 8 9 4
5 -3 13 0 17 6 5 8 3 9 -6 4 -10 -6 -11 -1 -6 21 6 28 5 28 -14 -6 -10 -19
-19 -30 -20 -24 0 7 -16 15 -36 18 -23 5 -34 12 -31 20 3 7 -4 18 -14 24 -10
7 -19 8 -19 3 0 -5 6 -11 13 -14 23 -8 1 -16 -25 -9 -26 7 -26 8 -13 47 19 53
10 58 -11 6 -22 -57 -40 -53 -36 9 0 10 -5 8 -18 -8 -19 -23 -35 -16 -24 12 3
9 1 16 -5 16 -6 0 -11 -7 -11 -15 0 -8 -6 -15 -14 -15 -9 0 -13 8 -10 23 5 22
4 22 -6 -1 -8 -20 -12 -21 -23 -10 -8 7 -16 20 -20 28 -4 11 -6 10 -6 -4 -1
-14 -4 -16 -14 -7 -8 6 -17 7 -21 3 -11 -10 5 51 17 66 6 8 6 12 -1 12 -6 0
-15 -15 -21 -33z"/>
<path d="M617 800 c-3 -11 -3 -20 -1 -20 2 0 8 9 14 20 6 11 7 20 2 20 -6 0
-12 -9 -15 -20z"/>
<path d="M2991 809 c0 -9 -7 -19 -15 -22 -15 -6 -11 -47 5 -47 11 0 22 44 16
67 -4 15 -5 15 -6 2z"/>
<path d="M2401 791 c-7 -5 -9 -11 -4 -14 4 -3 17 1 28 9 21 16 0 20 -24 5z"/>
<path d="M681 774 c0 -11 3 -14 6 -6 3 7 2 16 -1 19 -3 4 -6 -2 -5 -13z"/>
<path d="M1510 753 c-17 -19 -30 -41 -29 -51 0 -12 3 -11 10 6 5 14 13 20 20
16 7 -4 9 -3 6 3 -4 6 0 14 8 17 8 3 14 11 13 18 -2 7 2 12 9 13 18 0 25 12 8
12 -9 0 -29 -15 -45 -34z"/>
<path d="M2186 775 c-3 -9 -6 -22 -5 -28 0 -7 5 -1 10 12 5 13 8 26 5 28 -2 2
-6 -3 -10 -12z"/>
<path d="M2855 765 c-60 -23 -60 -23 -57 -62 4 -57 9 -65 34 -58 56 16 128 48
128 58 0 25 -24 87 -34 86 -6 0 -38 -11 -71 -24z m75 -31 c0 -10 -5 -14 -16
-10 -8 3 -12 2 -9 -4 3 -6 -3 -10 -14 -10 -11 0 -23 -4 -26 -10 -9 -15 -32
-12 -39 6 -3 8 -2 12 4 9 6 -3 16 -3 23 2 6 4 26 13 42 19 17 7 31 12 33 13 1
0 2 -6 2 -15z"/>
<path d="M656 765 c-3 -9 -6 -24 -5 -33 0 -9 5 -4 10 12 9 32 6 48 -5 21z"/>
<path d="M1120 770 c0 -13 18 -22 24 -11 3 5 -1 11 -9 15 -8 3 -15 1 -15 -4z"/>
<path d="M334 675 c3 -49 9 -186 12 -303 6 -182 9 -215 23 -220 9 -3 30 -16
46 -29 17 -13 35 -27 40 -31 52 -38 70 -55 70 -63 0 -13 26 -29 45 -28 8 0 2
5 -15 11 -26 10 -27 12 -10 18 28 10 67 0 61 -16 -3 -8 1 -14 10 -14 12 0 14
5 9 18 -13 30 -24 96 -25 143 l0 47 68 27 c70 28 210 58 325 70 l68 7 -6 -28
c-5 -22 -4 -25 4 -14 6 8 11 23 11 33 0 10 4 16 9 12 5 -3 12 -1 15 4 3 5 -1
12 -10 15 -12 5 -15 15 -11 40 8 49 -7 66 -32 35 -11 -13 -21 -28 -21 -34 -1
-18 -40 -61 -40 -45 0 12 -3 11 -11 -3 -8 -14 -14 -15 -31 -6 -15 8 -19 8 -14
0 5 -7 -3 -11 -21 -12 -92 -3 -280 -60 -298 -89 -3 -5 -35 9 -72 30 -37 22
-69 37 -71 35 -6 -6 42 -45 87 -70 22 -13 37 -29 38 -43 2 -12 0 -22 -3 -22
-13 0 -64 32 -64 40 0 5 -6 7 -13 4 -8 -3 -20 2 -27 10 -7 9 -16 14 -20 11 -5
-3 -19 7 -32 22 -21 26 -58 43 -58 27 0 -15 60 -54 173 -110 27 -14 47 -31 47
-40 0 -26 -55 -10 -103 31 -22 19 -47 36 -54 36 -7 1 -17 2 -22 3 -5 0 -19 14
-31 29 -22 28 -22 30 -7 90 9 34 18 91 21 127 3 36 7 79 9 95 2 17 4 63 5 103
2 54 5 72 16 72 11 0 36 46 36 67 0 2 -30 3 -66 1 l-66 -3 6 -90z m83 51 c-2
-6 -11 -11 -19 -10 -10 1 -13 -7 -10 -27 5 -31 -12 -40 -22 -13 -12 31 -6 62
12 66 24 6 44 -2 39 -16z m-27 -86 c0 -5 -4 -10 -10 -10 -5 0 -10 5 -10 10 0
6 5 10 10 10 6 0 10 -4 10 -10z m-1 -27 c0 -5 -4 -17 -9 -28 -8 -17 -8 -16 -7
8 1 15 5 27 9 27 4 0 8 -3 7 -7z m671 -232 c-5 -10 -7 -21 -5 -25 3 -3 2 -4
-1 -1 -4 2 -15 -6 -25 -18 -25 -30 -24 -14 3 33 22 37 48 47 28 11z m10 -51
c0 -5 -7 -10 -16 -10 -8 0 -12 5 -9 10 3 6 10 10 16 10 5 0 9 -4 9 -10z m-675
-161 c11 -17 2 -18 -19 -3 -17 12 -17 14 -4 14 9 0 20 -5 23 -11z m40 -8 c9
-15 93 -70 131 -86 44 -18 45 -36 2 -28 -32 5 -103 42 -83 43 6 0 -10 18 -35
40 -25 21 -40 39 -33 40 6 0 14 -4 18 -9z"/>
<path d="M2201 733 c-10 -26 -10 -27 4 -9 8 11 15 23 15 28 0 15 -7 8 -19 -19z"/>
<path d="M2320 727 c0 -20 4 -38 9 -42 6 -3 7 10 4 32 -8 50 -13 55 -13 10z"/>
<path d="M597 736 c-4 -10 -7 -25 -6 -34 0 -11 4 -9 10 7 5 13 8 29 6 35 -2 5
-6 2 -10 -8z"/>
<path d="M1107 728 c-4 -12 -6 -34 -6 -48 1 -18 3 -20 6 -7 5 18 5 18 26 0 20
-17 20 -16 -1 11 -13 17 -18 32 -13 35 6 4 6 12 2 20 -6 9 -10 6 -14 -11z"/>
<path d="M695 730 c-3 -5 -1 -10 4 -10 6 0 11 5 11 10 0 6 -2 10 -4 10 -3 0
-8 -4 -11 -10z"/>
<path d="M2292 715 c0 -16 2 -22 5 -12 2 9 2 23 0 30 -3 6 -5 -1 -5 -18z"/>
<path d="M2645 709 c-44 -33 -54 -49 -33 -49 8 0 20 11 27 24 9 16 20 22 35
20 11 -2 15 -1 8 2 -10 5 -9 9 5 20 10 7 14 13 8 13 -5 0 -28 -13 -50 -30z"/>
<path d="M1287 719 c7 -7 15 -10 18 -7 3 3 -2 9 -12 12 -14 6 -15 5 -6 -5z"/>
<path d="M1813 713 c-3 -10 -8 -22 -10 -28 -3 -5 3 -1 11 9 16 20 21 36 11 36
-3 0 -8 -8 -12 -17z"/>
<path d="M2270 725 c-2 -5 -4 -29 -5 -52 -1 -33 3 -44 17 -49 23 -7 23 -17 -2
-39 -11 -10 -20 -23 -20 -29 0 -6 4 -5 9 3 13 20 61 -1 61 -26 0 -15 2 -16 10
-3 7 11 4 20 -13 32 -12 10 -16 18 -9 18 6 0 12 5 12 12 0 9 -3 9 -12 0 -27
-27 -30 -10 -3 18 26 27 24 45 -2 19 -15 -15 -23 0 -33 59 -4 26 -9 43 -10 37z"/>
<path d="M2708 713 c6 -2 18 -2 25 0 6 3 1 5 -13 5 -14 0 -19 -2 -12 -5z"/>
<path d="M1450 695 c-7 -9 -10 -18 -7 -21 3 -3 10 4 17 15 13 25 8 27 -10 6z"/>
<path d="M571 683 c-1 -24 13 -31 25 -11 4 6 3 8 -4 4 -6 -3 -13 2 -15 11 -4
14 -5 13 -6 -4z"/>
<path d="M2193 675 c-3 -9 -3 -18 -1 -21 3 -3 8 4 11 16 6 23 -1 27 -10 5z"/>
<path d="M2465 664 c-9 -15 -12 -23 -6 -20 11 7 35 46 28 46 -3 0 -12 -12 -22
-26z"/>
<path d="M2492 665 c-9 -20 -9 -23 3 -18 8 3 15 14 15 24 0 25 -5 24 -18 -6z"/>
<path d="M2316 667 c3 -10 9 -15 12 -12 3 3 0 11 -7 18 -10 9 -11 8 -5 -6z"/>
<path d="M2678 650 c-43 -38 -23 -39 22 0 19 16 29 29 23 30 -7 0 -27 -13 -45
-30z"/>
<path d="M2966 673 c-4 -5 -11 -8 -14 -9 -4 0 -24 -8 -45 -17 -21 -9 -50 -18
-65 -19 -15 -2 -29 -5 -32 -8 -25 -26 -107 -57 -137 -51 -7 1 -22 -3 -33 -9
-11 -6 -20 -7 -20 -1 0 5 12 12 26 15 15 4 24 9 21 12 -3 3 -24 0 -46 -7 -28
-8 -40 -17 -37 -26 3 -7 1 -13 -4 -13 -6 0 -10 4 -10 10 0 5 -7 7 -15 4 -9 -4
-15 -1 -14 7 1 23 36 74 48 72 13 -3 15 23 3 31 -9 5 -38 -30 -61 -76 -16 -32
-41 -60 -72 -81 -12 -9 -18 -20 -14 -27 5 -8 10 -8 14 -2 3 5 23 19 45 31 28
16 41 19 51 11 10 -8 31 -6 79 8 36 11 66 17 66 14 0 -4 5 0 10 8 6 10 10 11
10 3 0 -7 5 -13 11 -13 5 0 8 4 5 9 -3 5 1 12 10 15 9 3 12 2 9 -5 -4 -5 9 -4
27 4 19 8 47 15 62 15 16 0 31 4 35 9 3 6 16 13 29 17 12 4 22 12 22 17 0 6
-3 8 -7 6 -38 -21 -145 -58 -151 -52 -6 6 78 44 98 45 8 0 26 7 40 15 22 12
27 11 44 -3 11 -9 16 -11 12 -4 -4 6 -3 12 1 12 5 0 9 9 10 20 2 22 0 24 -11
13z m-445 -146 c-10 -9 -11 -8 -5 6 3 10 9 15 12 12 3 -3 0 -11 -7 -18z m66
-3 c-3 -3 -12 -4 -19 -1 -8 3 -5 6 6 6 11 1 17 -2 13 -5z"/>
<path d="M1937 644 c-26 -35 -17 -38 11 -3 13 16 20 29 15 29 -4 0 -16 -12
-26 -26z"/>
<path d="M2145 660 c3 -5 8 -10 11 -10 2 0 4 5 4 10 0 6 -5 10 -11 10 -5 0 -7
-4 -4 -10z"/>
<path d="M730 645 c-6 -8 -10 -19 -8 -24 1 -6 8 1 15 14 13 28 11 31 -7 10z"/>
<path d="M1680 649 c0 -5 5 -7 10 -4 6 3 10 8 10 11 0 2 -4 4 -10 4 -5 0 -10
-5 -10 -11z"/>
<path d="M2991 644 c0 -11 3 -14 6 -6 3 7 2 16 -1 19 -3 4 -6 -2 -5 -13z"/>
<path d="M1135 640 c-3 -5 -1 -10 4 -10 6 0 11 5 11 10 0 6 -2 10 -4 10 -3 0
-8 -4 -11 -10z"/>
<path d="M1420 635 c0 -17 -16 -20 -25 -5 -7 12 -25 4 -25 -12 0 -5 7 -8 15
-4 8 3 15 1 15 -4 0 -5 24 -16 53 -24 358 -99 427 -121 572 -181 79 -34 202
-71 223 -67 12 2 22 10 22 18 0 13 2 13 16 0 8 -9 20 -16 25 -16 5 0 6 -12 3
-26 -5 -20 -3 -25 7 -22 19 6 34 87 19 102 -9 8 -10 4 -4 -18 5 -20 3 -27 -4
-22 -17 10 -24 63 -12 86 6 12 14 19 17 17 2 -3 0 -14 -6 -24 -8 -15 -7 -20 5
-20 19 0 18 46 -2 54 -10 4 -14 13 -10 27 5 20 5 21 -9 2 -14 -19 -15 -17 -15
17 0 20 -4 37 -8 37 -4 0 -8 -16 -8 -35 0 -25 5 -37 18 -41 10 -3 18 -10 18
-15 0 -6 -4 -7 -10 -4 -6 4 -7 -1 -3 -11 4 -11 2 -15 -4 -11 -6 4 -18 -10 -27
-33 -20 -51 -52 -60 -102 -31 -19 12 -39 19 -44 16 -4 -3 -10 1 -13 9 -4 9
-14 12 -26 9 -12 -3 -21 -1 -21 6 0 5 -6 8 -12 6 -7 -3 -19 -1 -26 3 -9 7 -6
23 17 73 32 71 54 142 41 134 -4 -3 -11 -17 -14 -32 -11 -47 -58 -153 -68
-153 -5 0 -6 6 -2 13 6 9 4 9 -7 0 -26 -25 -30 -13 -9 25 l22 37 -24 -27 c-26
-30 -59 -36 -80 -15 -7 8 -24 12 -36 10 -13 -1 -21 1 -18 5 2 4 -5 9 -16 9
-12 1 -24 7 -28 13 -4 6 -16 10 -26 8 -14 -2 -18 2 -16 17 2 18 2 18 -8 3 -16
-26 -33 -22 -27 5 5 20 5 20 -7 5 -11 -15 -16 -15 -39 -3 -14 7 -28 11 -31 8
-3 -3 -12 -1 -19 5 -8 7 -17 8 -21 4 -4 -4 -14 2 -22 12 -8 11 -14 14 -14 8 0
-8 -9 -10 -25 -7 -14 3 -36 7 -50 10 -17 4 -25 12 -26 28 -1 21 -1 21 -8 -3
-5 -17 -9 -21 -15 -12 -4 6 -4 18 -1 25 4 6 -1 3 -9 -7 -16 -20 -20 -16 -17
17 1 9 0 17 -3 17 -3 0 -6 -7 -6 -15z m885 -263 c-11 -11 -25 15 -19 33 7 17
8 16 16 -5 5 -13 6 -25 3 -28z"/>
<path d="M2752 643 c-12 -2 -34 -16 -47 -29 -26 -26 -34 -44 -12 -25 8 6 16 8
20 5 3 -3 10 4 17 15 6 12 17 21 25 21 7 0 17 5 20 10 3 6 5 9 3 9 -2 -1 -13
-4 -26 -6z"/>
<path d="M1101 614 c-1 -30 -20 -41 -68 -42 -24 0 -44 -1 -45 -2 -8 -5 -48
-11 -83 -14 -22 -1 -48 -6 -58 -11 -9 -4 -26 -5 -37 -2 -11 3 -18 0 -17 -5 1
-6 -14 -15 -33 -20 -19 -5 -46 -18 -60 -27 -37 -26 -70 -33 -63 -13 4 10 2 13
-5 8 -7 -4 -12 -14 -12 -22 0 -8 -5 -12 -10 -9 -6 4 -9 3 -8 -2 4 -13 -39 -56
-50 -50 -5 4 -7 20 -4 38 3 21 1 30 -6 25 -12 -7 -46 38 -40 51 2 4 -6 18 -18
29 l-22 22 -6 -24 c-6 -24 14 -77 34 -89 12 -7 2 22 -17 50 -20 30 -15 43 7
15 11 -14 20 -29 20 -33 0 -4 9 -17 20 -29 22 -24 26 -38 10 -38 -5 0 -10 5
-10 10 0 6 -8 10 -18 10 -10 0 -31 14 -47 30 -28 29 -52 28 -40 -1 7 -17 70
-59 98 -65 30 -5 37 -16 39 -58 1 -20 5 -39 9 -42 4 -2 7 14 6 37 -2 30 3 47
15 59 37 34 186 109 248 124 65 15 250 40 256 33 2 -2 -1 -19 -6 -38 -6 -18
-9 -45 -9 -59 1 -19 2 -21 6 -6 4 15 7 16 15 5 6 -10 7 -4 3 18 -9 43 11 99
35 106 11 3 20 13 20 22 0 15 -1 15 -17 -1 -17 -16 -18 -16 -24 7 -6 22 -7 22
-8 3z"/>
<path d="M1241 583 c1 -53 6 -49 11 10 2 20 0 37 -4 37 -4 0 -8 -21 -7 -47z"/>
<path d="M2976 594 c-7 -19 0 -34 17 -34 8 0 8 3 -2 9 -9 6 -10 11 -2 15 13 9
15 26 2 26 -5 0 -12 -7 -15 -16z"/>
<path d="M2120 590 c-9 -6 -10 -10 -3 -10 6 0 15 5 18 10 8 12 4 12 -15 0z"/>
<path d="M596 565 c-3 -8 -1 -15 4 -15 6 0 10 7 10 15 0 8 -2 15 -4 15 -2 0
-6 -7 -10 -15z"/>
<path d="M2225 570 c-3 -5 -1 -10 4 -10 6 0 11 5 11 10 0 6 -2 10 -4 10 -3 0
-8 -4 -11 -10z"/>
<path d="M702 535 c0 -16 2 -22 5 -12 2 9 2 23 0 30 -3 6 -5 -1 -5 -18z"/>
<path d="M662 530 c0 -14 2 -19 5 -12 2 6 2 18 0 25 -3 6 -5 1 -5 -13z"/>
<path d="M1850 528 c-12 -22 -12 -22 6 -6 10 10 15 20 12 24 -4 3 -12 -5 -18
-18z"/>
<path d="M2175 540 c3 -5 8 -10 11 -10 2 0 4 5 4 10 0 6 -5 10 -11 10 -5 0 -7
-4 -4 -10z"/>
<path d="M2242 525 c0 -16 2 -22 5 -12 2 9 2 23 0 30 -3 6 -5 -1 -5 -18z"/>
<path d="M1230 519 c0 -5 5 -7 10 -4 6 3 10 8 10 11 0 2 -4 4 -10 4 -5 0 -10
-5 -10 -11z"/>
<path d="M1916 513 c-6 -14 -5 -15 5 -6 7 7 10 15 7 18 -3 3 -9 -2 -12 -12z"/>
<path d="M2137 494 c-12 -25 -15 -40 -8 -46 6 -4 9 -5 6 -2 -2 4 3 20 11 36 8
16 14 34 12 39 -2 6 -12 -6 -21 -27z"/>
<path d="M2683 507 c-18 -12 -35 -30 -39 -39 -3 -10 -12 -18 -20 -18 -8 0 -14
-5 -14 -10 0 -7 7 -7 21 0 11 7 28 9 37 6 13 -5 12 -2 -2 9 -11 8 -15 15 -9
15 7 0 18 7 26 14 8 8 30 22 48 30 31 13 32 14 9 15 -14 0 -40 -10 -57 -22z"/>
<path d="M610 516 c0 -2 7 -6 15 -10 8 -3 15 -1 15 4 0 6 -7 10 -15 10 -8 0
-15 -2 -15 -4z"/>
<path d="M1954 499 c-19 -22 -19 -22 4 -10 12 6 22 16 22 21 0 15 -5 12 -26
-11z"/>
<path d="M2067 493 c-23 -43 -21 -50 4 -22 11 13 18 19 15 12 -4 -6 -2 -14 4
-18 12 -7 12 11 1 40 -7 18 -9 17 -24 -12z"/>
<path d="M2191 492 c-7 -13 -11 -26 -8 -28 8 -8 29 25 25 38 -3 8 -9 4 -17
-10z"/>
<path d="M1455 490 c-3 -6 1 -7 9 -4 18 7 21 14 7 14 -6 0 -13 -4 -16 -10z"/>
<path d="M2953 492 c10 -15 -50 -62 -79 -62 -33 0 -37 -1 -54 -10 -9 -5 -36
-11 -60 -15 -25 -4 -56 -9 -70 -12 -14 -2 -34 -5 -45 -6 -11 -1 -26 -6 -32
-10 -7 -5 -17 -6 -22 -3 -5 3 -32 -1 -61 -10 -29 -9 -60 -14 -69 -11 -9 2 -27
-9 -41 -27 -14 -17 -19 -26 -11 -22 11 7 13 4 7 -15 -15 -48 -18 -77 -7 -83 6
-4 11 -15 11 -24 -1 -14 -5 -12 -21 7 -23 27 -20 29 -48 -26 -11 -23 -47 -70
-78 -104 l-58 -62 42 5 c30 4 53 16 80 41 38 36 59 42 31 10 -8 -10 -18 -27
-22 -37 -5 -16 -2 -14 17 6 24 26 44 73 26 62 -5 -3 -9 -1 -9 5 0 19 -28 4
-67 -37 -55 -58 -75 -53 -23 6 23 26 53 66 67 90 14 23 27 42 29 42 2 0 8 -10
15 -21 6 -12 7 -19 1 -15 -8 5 -42 -33 -42 -48 0 -11 34 2 38 15 3 11 1 11 -8
-1 -8 -10 -10 -11 -8 -2 8 31 23 3 23 -45 0 -28 4 -49 9 -45 5 3 7 -1 4 -10
-4 -9 0 -15 8 -15 15 0 19 23 5 29 -11 4 -14 20 -12 76 1 27 5 41 11 37 6 -4
10 -3 9 2 -5 21 18 47 58 64 25 10 48 17 52 14 5 -2 17 2 27 10 17 13 16 14
-16 9 -46 -7 -110 -34 -110 -47 0 -5 -7 -4 -15 3 -18 15 -19 36 -3 95 13 49
19 53 42 30 8 -8 23 -15 33 -15 15 0 16 -2 3 -10 -8 -5 -10 -10 -5 -10 6 0 16
4 23 9 11 6 10 10 -5 16 -10 5 -21 7 -25 7 -19 -4 -5 16 17 26 34 16 82 15 88
0 4 -10 6 -10 6 0 1 7 6 10 11 7 6 -3 10 -2 10 3 0 5 10 10 23 10 25 1 72 11
212 46 55 14 108 26 118 26 9 0 17 7 17 15 0 17 -16 20 -25 5 -3 -5 -13 -10
-22 -10 -14 0 -14 2 1 19 13 14 14 21 5 27 -7 4 -10 3 -6 -4z"/>
<path d="M980 470 c-6 -11 -7 -20 -3 -20 5 0 14 9 21 20 7 11 8 20 2 20 -5 0
-14 -9 -20 -20z"/>
<path d="M1234 482 c-17 -11 -24 -62 -9 -62 7 0 15 16 17 35 2 19 4 35 3 35 0
0 -5 -4 -11 -8z"/>
<path d="M2595 480 c-16 -7 -17 -9 -3 -9 9 -1 20 4 23 9 7 11 7 11 -20 0z"/>
<path d="M2699 473 c-13 -15 -12 -15 6 -6 11 6 27 13 35 16 10 4 8 6 -6 6 -12
1 -28 -6 -35 -16z"/>
<path d="M2769 473 c-13 -16 -12 -17 4 -4 16 13 21 21 13 21 -2 0 -10 -8 -17
-17z"/>
<path d="M2793 459 c-24 -17 -43 -32 -43 -35 0 -11 22 -2 37 16 10 11 25 20
34 20 9 0 19 7 23 15 8 22 -3 18 -51 -16z"/>
<path d="M2870 479 c0 -5 5 -7 10 -4 6 3 10 8 10 11 0 2 -4 4 -10 4 -5 0 -10
-5 -10 -11z"/>
<path d="M2240 470 c0 -5 9 -14 20 -20 16 -9 20 -8 20 5 0 9 -4 13 -10 10 -5
-3 -10 -1 -10 4 0 6 -4 11 -10 11 -5 0 -10 -4 -10 -10z"/>
<path d="M2410 470 c-9 -6 -10 -10 -3 -10 6 0 15 5 18 10 8 12 4 12 -15 0z"/>
<path d="M2215 454 c4 -11 7 -28 7 -39 -1 -11 2 -15 6 -9 4 6 12 13 17 15 6 2
-1 15 -14 28 -19 19 -22 20 -16 5z"/>
<path d="M1591 444 c0 -11 3 -14 6 -6 3 7 2 16 -1 19 -3 4 -6 -2 -5 -13z"/>
<path d="M2150 441 c0 -5 -3 -17 -7 -27 -4 -11 -3 -15 4 -11 14 9 24 47 12 47
-5 0 -9 -4 -9 -9z"/>
<path d="M1895 429 c-4 -6 -5 -12 -2 -15 2 -3 7 2 10 11 7 17 1 20 -8 4z"/>
<path d="M2712 428 c-19 -19 -14 -29 8 -16 20 13 27 28 12 28 -4 0 -13 -5 -20
-12z"/>
<path d="M2587 419 c7 -7 15 -10 18 -7 3 3 -2 9 -12 12 -14 6 -15 5 -6 -5z"/>
<path d="M2980 419 c0 -5 5 -7 10 -4 6 3 10 8 10 11 0 2 -4 4 -10 4 -5 0 -10
-5 -10 -11z"/>
<path d="M2668 413 c7 -3 16 -2 19 1 4 3 -2 6 -13 5 -11 0 -14 -3 -6 -6z"/>
<path d="M1150 300 c-15 -109 -15 -111 5 -115 55 -12 60 -11 61 18 1 15 -2 27
-7 27 -4 0 -5 9 -2 20 3 11 1 20 -5 20 -10 0 -9 -33 2 -60 5 -11 0 -16 -14
-17 -12 -1 -20 5 -21 15 0 9 -2 32 -3 50 -3 22 1 32 10 32 8 0 14 7 14 15 0 9
9 15 23 15 12 0 29 5 37 11 11 7 3 9 -30 7 l-45 -2 3 37 c1 20 -1 37 -5 37 -5
0 -15 -50 -23 -110z"/>
<path d="M470 394 c0 -5 7 -19 15 -30 8 -10 15 -14 15 -8 0 5 -7 19 -15 30 -8
10 -15 14 -15 8z"/>
<path d="M1392 388 c-7 -7 -12 -17 -12 -24 0 -6 -7 -15 -16 -18 -8 -3 -12 -2
-9 3 9 16 -12 22 -25 7 -15 -19 5 -29 90 -45 36 -7 135 -30 220 -52 492 -128
454 -120 510 -109 29 6 53 10 54 10 1 0 2 9 3 21 2 20 1 20 -16 5 -10 -9 -29
-16 -43 -16 -15 0 -28 -5 -30 -12 -3 -9 -11 -9 -34 0 -16 6 -40 14 -54 16 -14
3 -25 5 -25 6 0 1 -13 3 -30 5 -16 2 -35 12 -42 21 -7 10 -13 13 -13 6 0 -8
-7 -9 -26 -1 -15 5 -43 12 -63 15 -20 3 -38 10 -39 15 -2 5 -7 7 -11 4 -4 -2
-30 4 -57 15 -27 10 -43 19 -35 20 8 0 11 3 8 6 -4 4 -14 1 -23 -6 -11 -10
-17 -11 -22 -3 -4 7 -14 11 -22 11 -31 -2 -51 2 -47 10 3 4 -11 7 -31 8 -20 0
-38 6 -40 12 -2 7 -8 12 -13 12 -6 0 -7 -5 -3 -12 5 -7 3 -8 -7 -2 -14 8 -19
10 -51 12 -10 1 -18 10 -18 19 0 15 -2 14 -15 -3 -13 -18 -14 -18 -15 -1 0 10
5 27 10 38 12 22 9 24 -8 7z"/>
<path d="M422 379 c2 -7 10 -15 17 -17 8 -3 12 1 9 9 -2 7 -10 15 -17 17 -8 3
-12 -1 -9 -9z"/>
<path d="M2009 370 c-9 -10 -13 -23 -10 -29 5 -7 12 -2 20 15 14 32 11 36 -10
14z"/>
<path d="M2774 374 c-18 -9 -43 -27 -55 -42 l-24 -26 25 17 c14 10 40 27 58
38 17 12 32 23 32 25 0 6 -2 5 -36 -12z"/>
<path d="M2956 365 c-24 -22 -25 -25 -8 -25 10 0 26 8 35 18 35 39 13 44 -27
7z"/>
<path d="M926 365 c-9 -26 -7 -32 5 -12 6 10 9 21 6 23 -2 3 -7 -2 -11 -11z"/>
<path d="M2910 369 c0 -5 5 -7 10 -4 6 3 10 8 10 11 0 2 -4 4 -10 4 -5 0 -10
-5 -10 -11z"/>
<path d="M2800 355 c-7 -8 -19 -15 -26 -15 -8 0 -14 -4 -14 -10 0 -5 6 -10 13
-10 16 0 53 38 45 45 -3 3 -11 -1 -18 -10z"/>
<path d="M856 343 c-6 -14 -5 -15 5 -6 7 7 10 15 7 18 -3 3 -9 -2 -12 -12z"/>
<path d="M2682 344 c-12 -8 -26 -13 -31 -10 -5 3 -20 -3 -32 -14 -13 -11 -19
-19 -12 -20 6 0 15 5 18 10 4 6 15 8 24 5 10 -3 29 3 42 14 29 24 21 37 -9 15z"/>
<path d="M2860 353 c-21 -8 -50 -34 -50 -46 0 -6 9 -2 21 9 11 10 33 24 47 31
27 11 11 17 -18 6z"/>
<path d="M450 325 c13 -14 48 -39 77 -54 48 -26 53 -27 53 -11 0 11 -4 22 -10
25 -5 3 -10 1 -10 -5 0 -16 -40 7 -71 41 -14 16 -34 29 -44 29 -16 0 -16 -3 5
-25z"/>
<path d="M2116 328 c4 -13 11 -26 16 -29 7 -4 6 -14 -1 -27 -17 -32 -13 -33
14 -6 14 14 30 22 35 19 16 -10 12 11 -5 25 -13 11 -14 10 -9 -4 11 -29 -15
-17 -31 14 -18 35 -29 40 -19 8z"/>
<path d="M2575 340 c-3 -5 -11 -8 -18 -6 -7 1 -9 1 -4 -1 4 -3 5 -9 1 -14 -3
-5 -1 -9 5 -9 6 0 15 9 21 20 11 20 7 29 -5 10z"/>
<path d="M408 310 c2 -18 9 -27 15 -23 6 4 8 0 5 -8 -3 -9 3 -26 13 -40 10
-13 19 -19 19 -14 0 6 -6 17 -12 25 -7 8 2 1 21 -15 35 -31 34 -18 -2 22 -10
12 -16 26 -13 31 3 5 -2 16 -12 24 -33 28 -39 28 -34 -2z"/>
<path d="M2175 330 c3 -5 14 -10 23 -10 15 0 15 2 2 10 -20 13 -33 13 -25 0z"/>
<path d="M2046 314 c-4 -9 -4 -19 -1 -22 3 -3 5 0 5 7 0 7 4 9 10 6 6 -3 7 1
4 9 -8 20 -10 20 -18 0z"/>
<path d="M2986 313 c-6 -14 -5 -15 5 -6 7 7 10 15 7 18 -3 3 -9 -2 -12 -12z"/>
<path d="M1845 309 c-11 -17 1 -21 15 -4 8 9 8 15 2 15 -6 0 -14 -5 -17 -11z"/>
<path d="M2217 314 c-3 -4 -4 -18 -1 -33 5 -22 1 -30 -18 -38 -15 -8 -18 -12
-7 -12 22 -1 45 29 47 62 2 26 -7 35 -21 21z"/>
<path d="M2256 294 c-5 -14 -4 -15 9 -4 17 14 19 20 6 20 -5 0 -12 -7 -15 -16z"/>
<path d="M1751 284 c0 -11 3 -14 6 -6 3 7 2 16 -1 19 -3 4 -6 -2 -5 -13z"/>
<path d="M1875 279 c-4 -6 -5 -12 -2 -15 2 -3 7 2 10 11 7 17 1 20 -8 4z"/>
<path d="M2256 249 c-20 -23 -35 -43 -33 -46 3 -2 20 14 38 37 23 29 35 37 41
28 5 -9 8 -10 8 -1 0 26 -19 20 -54 -18z"/>
<path d="M2951 277 c-5 -5 -15 -10 -22 -11 -30 -6 -49 -19 -42 -29 3 -6 1 -7
-6 -3 -14 9 -169 -37 -197 -59 -17 -13 -17 -14 -1 -15 9 0 17 5 17 11 0 6 7 9
15 5 8 -3 15 -2 15 3 0 5 19 8 41 8 28 0 45 6 51 17 5 9 14 16 21 16 8 0 6 -4
-3 -11 -13 -9 -13 -10 0 -6 8 2 14 10 13 16 -2 6 2 11 7 11 6 0 10 -5 10 -10
0 -7 6 -7 19 -1 10 6 22 7 26 3 5 -4 4 -1 0 7 -6 11 -4 13 9 8 11 -5 15 -3 10
5 -5 8 -2 9 9 5 10 -3 17 -3 17 2 0 5 9 11 20 14 11 3 20 9 20 14 0 11 -38 11
-49 0z"/>
<path d="M1081 264 c0 -11 3 -14 6 -6 3 7 2 16 -1 19 -3 4 -6 -2 -5 -13z"/>
<path d="M2090 266 c0 -8 4 -17 9 -20 5 -4 7 3 4 14 -6 23 -13 26 -13 6z"/>
<path d="M2330 270 c0 -22 -76 -94 -89 -86 -6 4 -11 2 -11 -3 0 -6 6 -11 14
-11 12 0 -44 -98 -84 -147 -13 -16 -13 -22 3 -19 28 5 58 29 89 72 18 25 34
40 36 34 3 -7 13 1 23 17 11 16 16 36 13 47 -4 12 -2 16 5 12 7 -4 10 -2 9 5
-2 7 7 18 19 24 l22 11 -24 30 c-16 19 -24 24 -25 14z m0 -57 c-15 -11 -20
-22 -16 -38 3 -12 -1 -30 -9 -41 -17 -22 -20 -12 -5 17 21 37 0 18 -24 -23
-14 -24 -44 -61 -68 -83 -24 -22 -31 -26 -15 -9 28 31 36 51 16 38 -16 -10 47
78 96 133 21 25 41 40 43 33 2 -6 -6 -18 -18 -27z"/>
<path d="M2229 93 c-13 -16 -12 -17 4 -4 9 7 17 15 17 17 0 8 -8 3 -21 -13z"/>
<path d="M2705 270 c-3 -5 -13 -10 -22 -10 -9 0 -47 -16 -84 -35 -38 -19 -77
-35 -87 -35 -9 0 -24 -5 -32 -10 -11 -7 0 -9 36 -7 29 1 50 5 48 9 -8 12 15
19 41 12 26 -7 26 -7 -14 -29 -55 -32 -108 -73 -115 -90 -2 -7 34 15 82 49
111 80 122 86 201 102 97 20 114 24 109 30 -7 6 -153 -23 -211 -42 -27 -9 -51
-13 -54 -10 -10 10 95 53 135 55 17 1 5 21 -13 21 -8 0 -17 -4 -20 -10z"/>
<path d="M2455 260 c3 -5 8 -10 11 -10 2 0 4 5 4 10 0 6 -5 10 -11 10 -5 0 -7
-4 -4 -10z"/>
<path d="M1015 250 c-3 -5 -2 -10 4 -10 5 0 13 5 16 10 3 6 2 10 -4 10 -5 0
-13 -4 -16 -10z"/>
<path d="M1613 235 c-7 -8 -9 -16 -4 -19 5 -3 12 1 15 10 8 22 4 25 -11 9z"/>
<path d="M2975 240 c-3 -5 -2 -10 4 -10 5 0 13 5 16 10 3 6 2 10 -4 10 -5 0
-13 -4 -16 -10z"/>
<path d="M1052 228 c2 -5 8 -9 13 -9 5 0 11 4 13 9 1 5 -4 9 -13 9 -9 0 -14
-4 -13 -9z"/>
<path d="M1535 230 c-3 -5 -1 -10 4 -10 6 0 11 5 11 10 0 6 -2 10 -4 10 -3 0
-8 -4 -11 -10z"/>
<path d="M656 195 c-9 -26 -7 -32 5 -12 6 10 9 21 6 23 -2 3 -7 -2 -11 -11z"/>
<path d="M1027 196 c-4 -10 -1 -13 9 -9 7 3 14 9 14 14 0 14 -17 10 -23 -5z"/>
<path d="M2912 174 c-23 -20 -47 -45 -53 -57 -6 -12 14 3 45 33 31 30 56 56
56 57 0 7 -9 1 -48 -33z"/>
<path d="M2955 174 c-15 -19 -25 -37 -23 -40 5 -4 68 61 68 71 0 15 -21 1 -45
-31z"/>
<path d="M1060 186 c0 -9 -10 -20 -22 -25 l-22 -8 21 -5 c17 -4 23 0 28 19 3
14 4 28 0 31 -3 3 -5 -2 -5 -12z"/>
<path d="M1825 179 c-4 -6 -5 -12 -2 -15 2 -3 7 2 10 11 7 17 1 20 -8 4z"/>
<path d="M1783 158 c-23 -30 -24 -41 -2 -21 12 12 20 25 17 28 -3 3 -10 0 -15
-7z"/>
<path d="M1877 151 c-4 -17 -3 -21 5 -13 5 5 8 16 6 23 -3 8 -7 3 -11 -10z"/>
<path d="M2735 147 c-25 -15 -35 -29 -29 -39 3 -5 -3 -16 -13 -26 -11 -9 -12
-13 -3 -7 8 5 33 26 54 47 38 36 33 50 -9 25z"/>
<path d="M946 135 c-3 -8 -1 -15 4 -15 6 0 10 7 10 15 0 8 -2 15 -4 15 -2 0
-6 -7 -10 -15z"/>
<path d="M1155 140 c-3 -5 -1 -10 4 -10 6 0 11 5 11 10 0 6 -2 10 -4 10 -3 0
-8 -4 -11 -10z"/>
<path d="M2650 140 c0 -5 10 -10 23 -10 18 0 19 2 7 10 -19 13 -30 13 -30 0z"/>
<path d="M537 129 c7 -7 15 -10 18 -7 3 3 -2 9 -12 12 -14 6 -15 5 -6 -5z"/>
<path d="M692 110 c0 -19 2 -27 5 -17 2 9 2 25 0 35 -3 9 -5 1 -5 -18z"/>
<path d="M1912 128 c5 -15 28 -23 28 -10 0 5 -7 13 -16 16 -10 4 -14 1 -12 -6z"/>
<path d="M2040 122 c6 -13 14 -21 18 -18 3 4 -2 14 -12 24 -18 16 -18 16 -6
-6z"/>
<path d="M2137 93 c-15 -25 -26 -47 -24 -49 6 -7 59 74 56 84 -2 6 -17 -10
-32 -35z"/>
<path d="M2178 106 c-9 -19 -31 -50 -48 -70 -18 -20 -27 -36 -21 -36 20 0 100
124 88 136 -2 2 -11 -11 -19 -30z"/>
<path d="M995 108 c-13 -10 -27 -28 -31 -40 -5 -16 -8 -18 -15 -7 -5 8 -9 9
-9 4 0 -15 -50 -11 -59 4 -6 10 -10 9 -14 -3 -4 -9 -11 -16 -17 -16 -6 0 -9 4
-6 8 2 4 0 14 -5 22 -8 12 -9 11 -7 -5 2 -16 -7 -22 -50 -34 -46 -12 -55 -12
-63 0 -7 11 -9 11 -9 -3 0 -9 -10 -19 -22 -22 -38 -8 94 3 147 13 28 6 80 10
117 10 58 1 69 4 78 22 7 11 9 23 7 26 -3 2 -8 -5 -12 -17 -4 -14 -12 -19 -22
-16 -8 3 -19 6 -24 6 -6 0 -7 5 -4 10 4 6 11 8 16 5 5 -3 6 2 2 11 -4 12 -2
15 8 12 16 -6 49 8 49 21 0 14 -31 8 -55 -11z"/>
<path d="M2089 113 c-13 -16 -12 -17 4 -4 9 7 17 15 17 17 0 8 -8 3 -21 -13z"/>
<path d="M2124 118 c-4 -7 -15 -24 -23 -38 -10 -15 -11 -21 -3 -16 13 7 46 66
38 66 -3 0 -8 -6 -12 -12z"/>
<path d="M2788 108 c-13 -13 -27 -22 -31 -20 -5 1 -5 -2 -2 -9 5 -7 16 -3 34
13 14 12 30 26 36 30 5 5 4 8 -3 8 -7 0 -22 -10 -34 -22z"/>
<path d="M2950 115 c-14 -7 -66 -23 -115 -35 -110 -27 -283 -82 -235 -74 19 3
55 12 80 19 25 7 81 21 125 31 44 9 88 21 98 26 11 6 17 5 17 -2 0 -6 10 -4
24 5 13 8 32 13 42 9 16 -5 16 -4 4 5 -11 8 -12 11 -2 11 7 0 10 5 7 10 -8 13
-14 12 -45 -5z"/>
<path d="M326 104 c-8 -21 1 -34 22 -34 15 1 15 2 -2 15 -32 24 -10 17 65 -20
103 -51 120 -42 19 10 -47 24 -88 44 -91 44 -4 1 -10 -6 -13 -15z"/>
<path d="M2000 104 c8 -10 15 -20 16 -22 1 -2 4 1 7 5 3 5 -4 15 -16 23 -21
12 -21 12 -7 -6z"/>
<path d="M1350 99 c0 -5 5 -7 10 -4 6 3 10 8 10 11 0 2 -4 4 -10 4 -5 0 -10
-5 -10 -11z"/>
<path d="M772 80 c0 -14 2 -19 5 -12 2 6 2 18 0 25 -3 6 -5 1 -5 -13z"/>
<path d="M1405 89 c-4 -6 -5 -12 -2 -15 2 -3 7 2 10 11 7 17 1 20 -8 4z"/>
<path d="M1365 70 c-3 -11 -11 -20 -17 -20 -5 0 -7 7 -4 16 5 13 3 14 -6 6 -7
-5 -28 -9 -46 -7 -21 2 -32 -1 -29 -8 2 -7 19 -13 38 -14 31 -2 221 -29 262
-38 9 -2 15 1 12 5 -3 5 -23 11 -45 15 -22 4 -40 10 -40 14 0 5 -11 6 -25 3
-14 -2 -25 0 -25 5 0 4 -16 8 -35 7 -31 -2 -35 1 -30 17 4 10 4 19 1 19 -2 0
-8 -9 -11 -20z"/>
<path d="M1980 80 c0 -5 5 -10 11 -10 5 0 7 5 4 10 -3 6 -8 10 -11 10 -2 0 -4
-4 -4 -10z"/>
<path d="M2506 66 c-13 -12 -31 -26 -40 -29 -9 -4 -16 -14 -16 -22 0 -14 5
-12 28 7 31 25 67 68 57 68 -3 0 -17 -11 -29 -24z"/>
<path d="M2600 73 c0 -6 -15 -14 -34 -17 -18 -4 -42 -16 -52 -28 l-19 -22 36
22 c20 12 43 22 52 22 17 0 32 18 23 27 -3 4 -6 2 -6 -4z"/>
<path d="M322 43 c4 -19 36 -28 137 -36 l66 -6 -60 14 c-33 8 -74 14 -92 15
-17 0 -35 5 -39 12 -5 8 5 9 37 4 31 -4 39 -3 29 4 -8 5 -30 10 -48 10 -26 0
-33 -4 -30 -17z"/>
<path d="M2954 41 c-30 -19 -52 -41 -39 -41 15 0 85 41 85 50 0 15 -11 12 -46
-9z"/>
<path d="M2820 28 c-126 -21 -139 -26 -55 -23 82 3 115 11 115 26 0 5 -1 8 -2
8 -2 -1 -28 -6 -58 -11z"/>
<path d="M980 27 c0 -2 6 -10 14 -16 11 -9 16 -9 22 1 4 7 4 10 -1 6 -4 -4
-14 -3 -22 3 -7 6 -13 9 -13 6z"/>
<path d="M1168 13 c7 -3 16 -2 19 1 4 3 -2 6 -13 5 -11 0 -14 -3 -6 -6z"/>
<path d="M1285 10 c-3 -5 -2 -10 4 -10 5 0 13 5 16 10 3 6 2 10 -4 10 -5 0
-13 -4 -16 -10z"/>
</g>
</svg>
